<?xml version="1.0" encoding="UTF-8"?>
<svg xmlns="http://www.w3.org/2000/svg" xmlns:xlink="http://www.w3.org/1999/xlink" width="1392" height="624" overflow="hidden">
  <defs>
    <clipPath id="clip0">
      <path d="M0 0 1392 0 1392 624 0 624Z" fill-rule="evenodd" clip-rule="evenodd"></path>
    </clipPath>
  </defs>
  <g clip-path="url(#clip0)">
    <rect x="0" y="0" width="1392" height="624" fill="#FFFFFF"></rect>
    <rect x="16" y="290" width="1361" height="4" fill="#153F5F"></rect>
    <rect x="116" y="375" width="6" height="66" fill="#DFE3E5"></rect>
    <rect x="30" y="441" width="178" height="40" fill="#DFE3E5"></rect>
    <rect x="610" y="441" width="177" height="40" fill="#FFE7A1"></rect>
    <rect x="1187" y="441" width="178" height="65" fill="#153F5F"></rect>
    <rect x="305" y="89" width="206" height="55" fill="#153F5F"></rect>
    <path d="M119 387C68.036 387 27 345.183 27 294 211 294 211 294 211 294 211 345.183 169.633 387 119 387Z" fill="#DFE3E5" fill-rule="evenodd"></path>
    <path d="M119.166 375C74.7764 375 39 338.701 39 294 199 294 199 294 199 294 199 338.701 163.224 375 119.166 375Z" fill="#153F5F" fill-rule="evenodd"></path>
    <text fill="#153F5F" font-family="Arial,Arial_MSFontService,sans-serif" font-weight="700" font-size="37" transform="translate(76 275)">2014</text>
    <rect x="405" y="144" width="7" height="66" fill="#153F5F"></rect>
    <path d="M408.5 198C459.408 198 501 239.367 501 290 316 290 316 290 316 290 316 239.367 357.259 198 408.5 198Z" fill="#153F5F" fill-rule="evenodd"></path>
    <path d="M408.166 210C452.224 210 488 245.851 488 290 328 290 328 290 328 290 328 245.851 364.108 210 408.166 210Z" fill="#DFE3E5" fill-rule="evenodd"></path>
    <text fill="#153F5F" font-family="Arial,Arial_MSFontService,sans-serif" font-weight="700" font-size="37" transform="translate(367.667 335)">2015</text>
    <rect x="694" y="375" width="7" height="66" fill="#FFE7A1"></rect>
    <path d="M697.5 387C646.592 387 605 345.183 605 294 790 294 790 294 790 294 790 345.183 748.408 387 697.5 387Z" fill="#FFE7A1" fill-rule="evenodd"></path>
    <path d="M697 375C652.851 375 617 338.701 617 294 777 294 777 294 777 294 777 338.701 741.149 375 697 375Z" fill="#FFC215" fill-rule="evenodd"></path>
    <text fill="#153F5F" font-family="Arial,Arial_MSFontService,sans-serif" font-weight="700" font-size="37" transform="translate(656.333 275)">2017</text>
    <rect x="987" y="144" width="7" height="66" fill="#DFE3E5"></rect>
    <path d="M986.5 198C1037.74 198 1079 239.367 1079 290 894 290 894 290 894 290 894 239.367 935.592 198 986.5 198Z" fill="#DFE3E5" fill-rule="evenodd"></path>
    <path d="M986.834 210C1030.89 210 1067 245.851 1067 290 907 290 907 290 907 290 907 245.851 942.776 210 986.834 210Z" fill="#153F5F" fill-rule="evenodd"></path>
    <text fill="#153F5F" font-family="Arial,Arial_MSFontService,sans-serif" font-weight="700" font-size="37" transform="translate(945.333 335)">2019</text>
    <rect x="1272" y="375" width="7" height="66" fill="#153F5F"></rect>
    <path d="M1276 387C1225.37 387 1184 345.183 1184 294 1368 294 1368 294 1368 294 1368 345.183 1326.96 387 1276 387Z" fill="#153F5F" fill-rule="evenodd"></path>
    <path d="M1276.17 375C1232.11 375 1196 338.701 1196 294 1356 294 1356 294 1356 294 1356 338.701 1320.22 375 1276.17 375Z" fill="#DFE3E5" fill-rule="evenodd"></path>
    <text fill="#153F5F" font-family="Arial,Arial_MSFontService,sans-serif" font-weight="700" font-size="37" transform="translate(1234 275)">2020</text>
    <path d="M425.605 266.333C424.263 265.333 422.587 264.667 421.246 265 417.892 262 417.892 262 417.892 262 420.91 258.333 422.251 254 422.251 249.333 422.251 237.667 412.862 228.333 401.126 228.333 389.725 228 380.335 237.667 380 249 380 260.667 389.389 270 401.126 270 405.82 270 410.18 268.667 413.868 266 417.222 269 417.222 269 417.222 269 416.886 270.667 417.222 272 418.563 273.333 427.281 282 427.281 282 427.281 282 428.958 284 432.311 284 433.988 282 436 280 436 277 433.988 275 425.605 266.333 425.605 266.333 425.605 266.333 425.605 266.333 425.605 266.333 425.605 266.333ZM401.126 266C392.072 266 384.359 258.667 384.359 249.333 384.359 240 392.072 232.667 401.126 232.667 410.515 232.667 418.228 240 418.228 249.333 418.228 258.333 410.515 266 401.126 266Z" fill="#153F5F" fill-rule="evenodd"></path>
    <path d="M416.667 248.667C412.667 248.667 412.667 248.667 412.667 248.667 412.333 248.667 412 249 412 249 409.333 252 409.333 252 409.333 252 407 244.333 407 244.333 407 244.333 406.667 243.667 406 243.333 405.333 243.333 405 243.667 404.667 243.667 404.667 244.333 400.333 255.333 400.333 255.333 400.333 255.333 397.667 240 397.667 240 397.667 240 397.333 239.333 397 239 396.333 239 395.667 239 395.333 239.333 395.333 239.667 392.333 248.667 392.333 248.667 392.333 248.667 387 248.667 387 248.667 387 248.667 387 251.333 387 251.333 387 251.333 393.333 251.333 393.333 251.333 393.333 251.333 393.667 251.333 394.333 251 394.333 250.333 396 245 396 245 396 245 399 260 399 260 399 260 399 260.667 399.333 261 400 261 400 261 400 261 400 261 400.667 261 401 260.667 401.333 260.333 405.667 248.667 405.667 248.667 405.667 248.667 407.667 254.667 407.667 254.667 407.667 254.667 407.667 255.333 408.333 256 409 255.667 409.333 255.667 409.667 255.333 409.667 255.333 413.333 251.333 413.333 251.333 413.333 251.333 417 251.333 417 251.333 417 251.333 417 248.667 417 248.667 417 248.667 416.667 248.667 416.667 248.667 416.667 248.667Z" fill="#153F5F" fill-rule="evenodd"></path>
    <path d="M1010.79 234.453C1010.13 228 1010.13 228 1010.13 228 1002.61 235.811 1002.61 235.811 1002.61 235.811 1002.93 239.547 1002.93 239.547 1002.93 239.547 992.14 250.755 992.14 250.755 992.14 250.755 991.159 250.415 990.178 250.075 988.869 250.075 985.271 250.075 982 253.132 982 256.868 982 260.943 985.271 264 988.869 264 992.794 264 995.738 260.943 995.738 256.868 995.738 255.849 995.411 254.83 995.084 253.811 1005.88 242.604 1005.88 242.604 1005.88 242.604 1009.48 242.943 1009.48 242.943 1009.48 242.943 1017 235.132 1017 235.132 1017 235.132 1010.79 234.453 1010.79 234.453 1010.79 234.453 1010.79 234.453 1010.79 234.453 1010.79 234.453Z" fill="#DFE3E5" fill-rule="evenodd"></path>
    <path d="M1012.33 244.667C1011.33 245.667 1011.33 245.667 1011.33 245.667 1010 245.333 1010 245.333 1010 245.333 1008.67 245.333 1008.67 245.333 1008.67 245.333 1010.67 248.667 1011.67 252.333 1011.67 256.667 1011.67 268.667 1001.67 278.667 989.667 278.667 977.333 278.667 967.333 268.667 967.333 256.667 967.333 244.333 977.333 234.333 989.667 234.333 993.667 234.333 997.667 235.333 1001 237.333 1000.67 236 1000.67 236 1000.67 236 1000.67 234.667 1000.67 234.667 1000.67 234.667 1001.33 233.667 1001.33 233.667 1001.33 233.667 1002 233.333 1002 233.333 1002 233.333 998.333 231.333 994 230 989.667 230 975 230 963 242 963 256.667 963 271 975 283 989.667 283 1004 283 1016 271 1016 256.667 1016 252 1015 248 1013 244 1012.33 244.667 1012.33 244.667 1012.33 244.667 1012.33 244.667 1012.33 244.667 1012.33 244.667Z" fill="#DFE3E5" fill-rule="evenodd"></path>
    <path d="M1000.61 251.88C1001.29 253.53 1001.62 254.85 1001.62 256.5 1001.62 263.43 995.901 269.04 989.168 269.04 982.099 269.04 976.376 263.43 976.376 256.5 976.376 249.9 982.099 244.29 989.168 244.29 990.852 244.29 992.198 244.62 993.881 244.95 996.911 241.98 996.911 241.98 996.911 241.98 994.554 240.66 991.861 240 989.168 240 979.743 240 972 247.59 972 256.5 972 265.74 979.743 273 989.168 273 998.257 273 1006 265.74 1006 256.5 1006 253.86 1005.33 251.22 1003.98 248.91 1000.61 251.88 1000.61 251.88 1000.61 251.88 1000.61 251.88 1000.61 251.88 1000.61 251.88Z" fill="#DFE3E5" fill-rule="evenodd"></path>
    <path d="M696 316C696 314.343 697.343 313 699 313 700.657 313 702 314.343 702 316 702 317.657 700.657 319 699 319 697.343 319 696 317.657 696 316Z" fill="#153F5F" fill-rule="evenodd"></path>
    <path d="M687 330C687 328.343 688.343 327 690 327 691.657 327 693 328.343 693 330 693 331.657 691.657 333 690 333 688.343 333 687 331.657 687 330Z" fill="#153F5F" fill-rule="evenodd"></path>
    <path d="M707.233 316.667C705.26 317.333 705.26 317.333 705.26 317.333 705.26 318 704.932 318.333 704.603 319 705.26 320.667 705.26 320.667 705.26 320.667 703.945 322.333 703.945 322.333 703.945 322.333 702.301 321.667 702.301 321.667 702.301 321.667 701.644 321.667 701.315 322 700.658 322.333 699.671 324 699.671 324 699.671 324 698.027 324 698.027 324 698.027 324 697.041 322 697.041 322 697.041 322 696.384 322 696.055 321.667 695.726 321.333 693.753 322 693.753 322 693.753 322 692.438 320.667 692.438 320.667 692.438 320.667 693.096 319 693.096 319 693.096 319 692.767 318.333 692.438 318 692.438 317.333 690.794 316.667 690.794 316.667 690.794 316.667 690.794 314.667 690.794 314.667 690.794 314.667 692.438 313.667 692.438 313.667 692.438 313.667 692.438 313.333 692.767 312.667 693.096 312.333 692.438 310.333 692.438 310.333 692.438 310.333 693.753 309 693.753 309 693.753 309 695.726 309.667 695.726 309.667 695.726 309.667 696.055 309.333 696.712 309 697.041 309 698.027 307.333 698.027 307.333 698.027 307.333 700 307.333 700 307.333 700 307.333 700.658 309 700.658 309 700.658 309 701.315 309 701.644 309.333 702.301 309.667 703.945 309 703.945 309 703.945 309 705.26 310.333 705.26 310.333 705.26 310.333 704.932 312 704.932 312 704.932 312 704.932 312.667 705.26 313 705.26 313.667 707.233 314.667 707.233 314.667 707.233 314.667 707.233 316.667 707.233 316.667 707.233 316.667 707.233 316.667 707.233 316.667 707.233 316.667ZM698.356 330.667C696.712 331.667 696.712 331.667 696.712 331.667 696.712 332 696.384 332.667 696.055 333 696.712 335 696.712 335 696.712 335 695.397 336.333 695.397 336.333 695.397 336.333 693.425 335.667 693.425 335.667 693.425 335.667 693.096 336 692.438 336.333 692.11 336.333 691.123 338 691.123 338 691.123 338 689.479 338 689.479 338 689.479 338 688.493 336.333 688.493 336.333 688.493 336.333 687.836 336 687.507 336 686.849 335.667 685.206 336.333 685.206 336.333 685.206 336.333 683.89 334.667 683.89 334.667 683.89 334.667 684.548 333 684.548 333 684.548 333 684.219 332.333 683.89 332 683.89 331.333 682.247 330.667 682.247 330.667 682.247 330.667 682.247 328.667 682.247 328.667 682.247 328.667 683.89 327.667 683.89 327.667 683.89 327.667 683.89 327.333 684.219 326.667 684.548 326.333 683.89 324.333 683.89 324.333 683.89 324.333 685.206 323 685.206 323 685.206 323 686.849 323.667 686.849 323.667 686.849 323.667 687.507 323.333 687.836 323.333 688.493 323 689.479 321.333 689.479 321.333 689.479 321.333 691.452 321.333 691.452 321.333 691.452 321.333 692.11 323 692.11 323 692.11 323 692.767 323.333 693.096 323.333 693.753 323.667 695.397 323 695.397 323 695.397 323 696.712 324.333 696.712 324.333 696.712 324.333 696.055 326.333 696.055 326.333 696.055 326.333 696.384 326.667 696.712 327.333 696.712 327.667 698.685 328.667 698.685 328.667 698.685 328.667 698.356 330.667 698.356 330.667 698.356 330.667 698.356 330.667 698.356 330.667 698.356 330.667 698.356 330.667 698.356 330.667 698.356 330.667ZM722.356 333.333C717.425 325 717.425 325 717.425 325 717.425 324.667 717.425 324.667 717.425 324.667 717.753 317 713.808 309.667 707.233 305.667 700.986 302 692.767 302 686.192 305.667 679.616 309.667 676 317 676.329 324.667 676.329 331.333 679.288 337.333 684.219 341.333 684.219 359 684.219 359 684.219 359 705.918 359 705.918 359 705.918 359 705.918 350.667 705.918 350.667 705.918 350.667 709.534 350.667 709.534 350.667 709.534 350.667 711.507 350.667 713.479 349.667 715.123 348.333 716.767 346.667 717.425 344.667 717.425 342.333 717.425 338.333 717.425 338.333 717.425 338.333 720.384 338.333 720.384 338.333 720.384 338.333 722.356 338 724 336 722.356 333.333Z" fill="#153F5F" fill-rule="evenodd"></path>
    <path d="M1257.35 310 1253 310 1253 359 1301 359 1301 354.622 1257.35 354.622 1257.35 310 1257.35 310 1257.35 310Z" fill="#153F5F" fill-rule="evenodd"></path>
    <path d="M1290 310 1301 310 1301 351 1290 351 1290 310 1290 310Z" fill="#153F5F" fill-rule="evenodd"></path>
    <path d="M1276 324 1286 324 1286 351 1276 351 1276 324 1276 324Z" fill="#153F5F" fill-rule="evenodd"></path>
    <path d="M1261 337 1272 337 1272 351 1261 351 1261 337 1261 337Z" fill="#153F5F" fill-rule="evenodd"></path>
    <path d="M1283 319.612 1283 310 1273.74 310 1277.38 313.776 1261 330.94 1262.98 333 1279.36 315.836 1283 319.612 1283 319.612 1283 319.612Z" fill="#153F5F" fill-rule="evenodd"></path>
    <path d="M99.0139 310 95 310 95 359 143 359 143 354.959 99.0139 354.959 99.0139 310 99.0139 310 99.0139 310Z" fill="#DFE3E5" fill-rule="evenodd"></path>
    <path d="M103 310 114 310 114 351 103 351 103 310 103 310Z" fill="#DFE3E5" fill-rule="evenodd"></path>
    <path d="M118 324 128 324 128 351 118 351 118 324 118 324Z" fill="#DFE3E5" fill-rule="evenodd"></path>
    <path d="M133 337 143 337 143 351 133 351 133 337 133 337Z" fill="#DFE3E5" fill-rule="evenodd"></path>
    <path d="M138.089 327.25 121.956 310 120 312.029 136.133 328.941 132.548 333 142 333 142 323.191 138.089 327.25 138.089 327.25 138.089 327.25Z" fill="#DFE3E5" fill-rule="evenodd"></path>
    <rect x="871" y="89" width="249" height="55" fill="#DEE2E4"></rect>
    <text fill="#143E5E" font-family="Arial,Arial_MSFontService,sans-serif" font-weight="700" font-size="19" transform="translate(47.999 468)">Refining TI &amp; TA<tspan fill="#DEE2E4" x="306.217" y="-355">Footprint in </tspan><tspan fill="#DEE2E4" x="266.304" y="-332">Product Engineering</tspan><tspan x="567.19" y="0">FinTech &amp; ES COE</tspan><tspan x="830.611" y="-356">Semi Conductor &amp; Hi</tspan><tspan x="1016.94" y="-356">-</tspan><tspan x="1023.11" y="-356">Tech </tspan><tspan x="871.251" y="-333">Engineering COE</tspan><tspan fill="#DEE2E4" x="1162.75" y="0">PharmaTech &amp; </tspan><tspan fill="#DEE2E4" x="1165.92" y="23">EduTech COE</tspan><tspan fill="#404040" font-weight="400" font-size="15" x="-22.0824" y="35">Incubated D</tspan><tspan fill="#404040" font-weight="400" font-size="15" x="56.9176" y="35">ata </tspan><tspan fill="#404040" font-weight="400" font-size="15" x="81.251" y="35">I</tspan><tspan fill="#404040" font-weight="400" font-size="15" x="85.251" y="35">ntelligence </tspan><tspan fill="#404040" font-weight="400" font-size="15" x="-22.0824" y="53">R</tspan><tspan fill="#404040" font-weight="400" font-size="15" x="-11.4157" y="53">ooted </tspan><tspan fill="#404040" font-weight="400" font-size="15" x="29.251" y="53">Talent Solution </tspan><tspan fill="#404040" font-weight="400" font-size="15" x="131.251" y="53">firm in a </tspan><tspan fill="#404040" font-weight="400" font-size="15" x="-22.0824" y="70">40 Sq. yd. Office</tspan><tspan fill="#404040" font-weight="400" font-size="13" x="542.334" y="40">Added Flexi</tspan><tspan fill="#404040" font-weight="400" font-size="13" x="612.334" y="40">-</tspan><tspan fill="#404040" font-weight="400" font-size="13" x="616.834" y="40">Staffing &amp; Executive Search </tspan><tspan fill="#404040" font-weight="400" font-size="13" x="542.334" y="56">LoB, Commenced Fintech &amp; ES CoE</tspan><tspan fill="#404040" font-weight="400" font-size="15" x="1135.5" y="66">CoE in PHL and EduTech </tspan><tspan fill="#404040" font-weight="400" font-size="15" x="1135.5" y="84">were Put in Motion</tspan><tspan fill="#404040" font-weight="400" font-size="15" x="252.606" y="-414">First CoE in Product Engineering </tspan><tspan fill="#404040" font-weight="400" font-size="15" x="252.606" y="-396">Space was Launched</tspan><tspan fill="#404040" font-weight="400" font-size="15" x="809.501" y="-417">Introduced </tspan><tspan fill="#404040" font-weight="400" font-size="15" x="882.668" y="-417">RPO Services. </tspan><tspan fill="#404040" font-weight="400" font-size="15" x="982.834" y="-417">Operationalised </tspan><tspan fill="#404040" font-weight="400" font-size="15" x="809.501" y="-399">Semiconductor &amp; Hi</tspan><tspan fill="#404040" font-weight="400" font-size="15" x="939.168" y="-399">-</tspan><tspan fill="#404040" font-weight="400" font-size="15" x="944.001" y="-399">Tech Engineering </tspan><tspan fill="#404040" font-weight="400" font-size="15" x="1063.17" y="-399">CoE. </tspan><tspan fill="#000000" font-size="11" x="-19.5658" y="135">LoB</tspan><tspan fill="#000000" font-size="11" x="1.10084" y="135">: </tspan><tspan fill="#000000" font-weight="400" font-size="11" x="7.60084" y="135">Line of Business </tspan><tspan fill="#000000" font-size="11" x="89.4342" y="135">|</tspan><tspan fill="#000000" font-size="11" x="95.4342" y="135">CoE</tspan><tspan fill="#000000" font-size="11" x="116.768" y="135">: </tspan><tspan fill="#000000" font-weight="400" font-size="11" x="123.268" y="135">Center of Excellence </tspan><tspan fill="#000000" font-size="11" x="225.268" y="135">| RPO: </tspan><tspan fill="#000000" font-weight="400" font-size="11" x="260.934" y="135">Recruitment Process Outsourcing </tspan><tspan fill="#000000" font-size="11" x="424.101" y="135">| PHL: </tspan><tspan fill="#000000" font-weight="400" font-size="11" x="457.934" y="135">Pharmaceutical, Healthcare &amp; </tspan><tspan fill="#000000" font-weight="400" font-size="11" x="602.768" y="135">Lifesciences | </tspan><tspan fill="#000000" font-size="11" x="670.601" y="135">ES: </tspan><tspan fill="#000000" font-weight="400" font-size="11" x="691.434" y="135">Executive Search</tspan></text>
  </g>
</svg>
