<svg width="964.667" height="470.667" viewBox="0 0 964.667 470.667" xmlns="http://www.w3.org/2000/svg"><path d="M280.643 249.958c33.19 0 60.098-26.907 60.098-60.098 0-33.19-26.907-60.098-60.098-60.098s-60.098 26.907-60.098 60.098 26.907 60.098 60.098 60.098" style="fill:#e4170f;fill-opacity:1;fill-rule:evenodd;stroke:none" transform="matrix(1.33333 0 0 -1.33333 0 468)"/><path d="m40.768.001-26.543-28.23V0H9.151v-83.566h5.074v49.805l25.98-27.563h6.657L17.729-30.948 47.542.002zm0 0" style="fill:#e4170f;fill-opacity:1;fill-rule:nonzero;stroke:none" aria-label="k" transform="translate(227.516 255.825)scale(1.33333)"/><path d="M35.8-3.503c6.211 0 11.403-1.582 15.586-4.746 4.172-3.047 6.774-7.336 7.676-12.75h5.309C63.246-14.46 60.199-9.151 55.218-5.19 50.144-1.241 43.816.786 36.023.786c-5.754 0-10.957-1.242-15.352-3.832-4.523-2.484-8.027-6.105-10.617-10.84-2.601-4.746-3.843-10.394-3.843-16.828 0-6.445 1.242-11.976 3.843-16.723 2.59-4.734 6.094-8.355 10.617-10.945 4.395-2.484 9.598-3.726 15.352-3.726 5.988 0 11.074 1.242 15.469 3.726 4.3 2.59 7.57 5.871 9.832 9.938 2.144 4.171 3.27 8.578 3.27 13.207 0 1.922-.223 3.843-.563 5.988H11.296c.106 5.766 1.243 10.5 3.61 14.344 2.262 3.949 5.191 6.773 8.918 8.578 3.62 1.922 7.57 2.824 11.976 2.824m.223-54.434c-4.406 0-8.473.903-12.2 2.825s-6.655 4.746-8.917 8.59c-2.367 3.832-3.504 8.578-3.61 14.226h48.329c.34-5.648-.668-10.394-2.825-14.344-2.144-3.843-5.074-6.668-8.8-8.578-3.727-1.816-7.688-2.719-11.977-2.719m0 0" style="fill:#fff;fill-opacity:1;fill-rule:nonzero;stroke:none" aria-label="e" transform="translate(326.984 255.736)scale(1.33333)"/><path d="M40.43-62.108c5.766 0 10.84 1.242 15.246 3.727 4.406 2.59 7.793 6.21 10.278 10.945 2.484 4.746 3.726 10.277 3.726 16.723 0 6.433-1.242 11.964-3.726 16.71C63.469-9.15 60.082-5.53 55.676-3.044 51.27-.455 46.196.787 40.43.787c-6.668 0-12.2-1.805-16.828-5.297-4.629-3.504-7.793-8.028-9.48-13.782v47.204h-4.97v-90.235h4.97v18.293c1.687-5.754 4.851-10.383 9.48-13.887 4.629-3.503 10.16-5.191 16.828-5.191m-1.02 4.512c-4.851 0-9.14 1.136-12.984 3.281-3.844 2.25-6.89 5.414-9.035 9.48s-3.27 8.813-3.27 14.122 1.125 10.043 3.27 14.109c2.145 4.184 5.191 7.348 9.035 9.492C30.27-4.85 34.56-3.725 39.411-3.725c7.687 0 13.78-2.367 18.41-7.23 4.523-4.852 6.773-11.403 6.773-19.758 0-8.25-2.25-14.801-6.773-19.653-4.63-4.851-10.723-7.23-18.41-7.23m0 0" style="fill:#e4170f;fill-opacity:1;fill-rule:nonzero;stroke:none" aria-label="p" transform="translate(455.006 255.825)scale(1.33333)"/><path d="M16.947-56.694v39.422c0 4.852.902 8.238 2.59 9.937 1.699 1.805 4.746 2.708 9.152 2.708h6.434V0h-6.997c-5.648 0-9.714-1.359-12.316-3.949-2.59-2.601-3.95-7.113-3.95-13.324v-39.422H2.147v-4.629h9.715V-76.91h5.086v15.586h18.176v4.63zm0 0" style="fill:#e4170f;fill-opacity:1;fill-rule:nonzero;stroke:none" aria-label="t" transform="translate(556.196 255.825)scale(1.33333)"/><path d="M35.802-3.502c6.211 0 11.402-1.583 15.586-4.747 4.172-3.046 6.773-7.336 7.676-12.75h5.308C63.247-14.459 60.201-9.15 55.22-5.19 50.146-1.24 43.818.787 36.025.787c-5.754 0-10.957-1.243-15.352-3.832-4.523-2.485-8.027-6.106-10.617-10.84-2.602-4.746-3.844-10.395-3.844-16.828 0-6.446 1.242-11.977 3.844-16.723 2.59-4.734 6.094-8.356 10.617-10.945 4.395-2.485 9.598-3.727 15.352-3.727 5.988 0 11.074 1.242 15.468 3.727 4.301 2.59 7.57 5.87 9.833 9.937 2.144 4.172 3.269 8.578 3.269 13.207 0 1.922-.223 3.844-.562 5.988H11.298c.106 5.766 1.242 10.5 3.61 14.344 2.261 3.95 5.19 6.774 8.917 8.578 3.622 1.922 7.57 2.825 11.977 2.825m.223-54.434c-4.407 0-8.473.902-12.2 2.824s-6.656 4.746-8.917 8.59c-2.368 3.832-3.504 8.578-3.61 14.227h48.328c.34-5.649-.668-10.395-2.824-14.344-2.144-3.844-5.074-6.668-8.8-8.578-3.727-1.817-7.688-2.72-11.977-2.72m0 0" style="fill:#e4170f;fill-opacity:1;fill-rule:nonzero;stroke:none" aria-label="e" transform="translate(608.9 255.825)scale(1.33333)"/><path d="M14.228-83.565V.001H9.154v-83.566Zm0 0" style="fill:#e4170f;fill-opacity:1;fill-rule:nonzero;stroke:none" aria-label="l" transform="translate(703.313 255.825)scale(1.33333)"/></svg>