<?xml version="1.0" encoding="UTF-8"?>
<!-- Generator: Adobe Illustrator 16.0.0, SVG Export Plug-In . SVG Version: 6.00 Build 0)  -->
<svg xmlns="http://www.w3.org/2000/svg" xmlns:xlink="http://www.w3.org/1999/xlink" version="1.1" id="Layer_1" x="0px" y="0px" width="560.07px" height="400px" viewBox="0 0 560.07 400" xml:space="preserve">
<g>
	<g>
		<g>
			
				<radialGradient id="SVGID_1_" cx="264.0298" cy="-71.3242" r="298.8959" gradientTransform="matrix(1.148 0 0 1.0964 -35.8632 165.3794)" gradientUnits="userSpaceOnUse">
				<stop offset="0" style="stop-color:#F6F7FC"></stop>
				<stop offset="0.3112" style="stop-color:#F3F6FC"></stop>
				<stop offset="0.5122" style="stop-color:#EBF2FC"></stop>
				<stop offset="0.6819" style="stop-color:#DCEBFC"></stop>
				<stop offset="0.8343" style="stop-color:#C7E1FC"></stop>
				<stop offset="0.9738" style="stop-color:#ACD4FC"></stop>
				<stop offset="1" style="stop-color:#A6D1FC"></stop>
			</radialGradient>
			<path fill="url(#SVGID_1_)" d="M60.504,342.454h471.567c-17.51-32.169-71.518-70.899-70.712-124.479     c1.009-67.082,48.186-97.245,42.553-123.521C482.146-7.056,374.798,124.584,246.217,71.488     C56.008-7.056,120.968,189.19,78.095,233.3C34.622,278.026,66.434,278.742,60.504,342.454z"></path>
		</g>
	</g>
	<g>
		<path fill="#FFD4B3" d="M222.045,50.667l-21.14,16.249c-0.014-0.106-0.042-0.21-0.055-0.318c-0.409-3.545-0.485-7.062-0.68-10.53    c0.082-0.146,0.136-0.315,0.129-0.521c-0.081-2.874,0.016-5.713,1.437-8.279c1.021-1.835,2.387-3.43,3.366-5.299    c2.948-5.626,3.496-12.205-0.177-17.605c-0.695-1.023-2.3,0.034-1.599,1.063c3.976,5.849,2.181,12.937-1.592,18.42    c-1.072,1.561-1.847,3.039-2.386,4.563c-0.564-3.083-1.508-6.104-3.169-9.054c-0.608-1.079-2.206-0.014-1.602,1.063    c4.869,8.642,3.303,18.416,4.552,27.86l-0.038,0.03c-1.266-1.33-2.73-2.493-4.362-3.442c-4.028-2.355-10.282-3.259-11.246-8.691    c-0.212-1.201-2.134-1.125-1.921,0.093c0.803,4.504,4.191,6.595,8.111,8.34c2.964,1.317,5.649,2.869,7.791,4.951l-18.171,13.968    c-3.196-5.602-11.291-6.694-9.853-26.396c0.643-8.832,2.942-29.184,0.853-34.56c-2.297-4.975-5.974-16.536-1.167-20.09    c7.968-5.892,14.967,6.398,21.253,7.359c22.793,3.497,29.405,25.358,30.308,34.063C220.95,46.438,221.418,48.68,222.045,50.667z"></path>
		<path fill="#FFFFFF" d="M199.092,68.31l-1.627,1.25c-2.142-2.082-4.827-3.634-7.791-4.951c-3.919-1.745-7.308-3.836-8.111-8.34    c-0.213-1.218,1.708-1.294,1.921-0.093c0.964,5.433,7.218,6.336,11.246,8.691C196.362,65.816,197.827,66.979,199.092,68.31z"></path>
		<path fill="#FFFFFF" d="M205.104,41.968c-0.979,1.869-2.345,3.464-3.366,5.299c-1.421,2.566-1.518,5.405-1.437,8.279    c0.007,0.206-0.047,0.375-0.129,0.521c0.195,3.469,0.271,6.985,0.68,10.53c0.012,0.108,0.041,0.212,0.055,0.318l-1.775,1.363    c-1.249-9.444,0.317-19.219-4.552-27.86c-0.604-1.077,0.993-2.143,1.602-1.063c1.662,2.949,2.605,5.971,3.169,9.054    c0.54-1.524,1.314-3.003,2.386-4.563c3.773-5.483,5.568-12.571,1.592-18.42c-0.702-1.029,0.903-2.087,1.599-1.063    C208.599,29.763,208.051,36.342,205.104,41.968z"></path>
	</g>
	<g>
		<path fill="#B3DEFF" d="M138.992,9.626c22.633,4.414,28.357,26.524,28.907,35.256c1.258,20.111,16.042,22.642,22.124,23.022    c3.038,0.192,7.208,2.003,11.329,5.027l-14.175,45.879c-0.946-1.512-1.909-3.012-2.896-4.471    c-2.596-3.833-5.758-7.264-9.261-10.279c-0.81-0.697-1.653-1.354-2.513-1.983c-0.078-0.14-0.194-0.265-0.364-0.36    c-0.335-0.189-0.655-0.39-0.966-0.592c-0.155-0.108-0.312-0.22-0.469-0.327c-10-7.023-6.568-20.769,2.422-27.644    c0.969-0.745-0.009-2.398-0.996-1.648c-5.003,3.828-8.93,9.532-9.529,15.941c-0.32,3.438,0.365,6.604,1.874,9.322    c-0.78-0.496-1.559-1.005-2.323-1.524c-4.21-2.863-7.002-8.152-9.546-12.464c-1.23-2.085-2.319-4.263-3.202-6.513    c-0.003-0.035-0.005-0.068-0.013-0.104c-0.271-1.12-0.649-2.192-1.111-3.217c-0.573-2.014-0.964-4.081-1.122-6.19    c-0.266-3.56-0.199-7.076-0.254-10.552c0.089-0.139,0.147-0.307,0.151-0.513c0.033-2.876,0.245-5.711,1.769-8.216    c1.094-1.79,2.524-3.331,3.578-5.159c3.172-5.501,3.985-12.053,0.534-17.599c-0.654-1.05-2.3-0.055-1.64,0.997    c3.736,6.005,1.656,13.017-2.335,18.343c-1.134,1.518-1.967,2.964-2.567,4.464c-0.44-3.102-1.261-6.159-2.802-9.177    c-0.564-1.101-2.204-0.101-1.644,1c4.518,8.83,2.556,18.539,3.425,28.024c0.005,0.027,0.01,0.05,0.009,0.074    c-1.225-1.398-2.659-2.637-4.269-3.665c-3.931-2.515-10.142-3.669-10.887-9.138c-0.164-1.206-2.087-1.208-1.924,0.019    c0.622,4.531,3.923,6.756,7.77,8.66c4.417,2.183,8.208,4.852,10.292,9.091c0.829,2.816,2.05,5.54,3.371,8.128    c2.077,4.078,4.712,8.429,7.679,11.928c3.102,3.657,7.59,6.009,11.633,8.509c0.629,0.479,1.303,0.921,2.011,1.332    c3.659,2.605,6.916,5.968,9.673,9.438c1.669,2.098,3.088,4.37,4.477,6.662c-4.316-2.526-9.748-3.186-14.801-2.177    c-1.983,0.397-3.886,1.177-5.658,2.146c-2.603,1.426-4.663,3.664-7.485,4.722c-6.195,2.329-10.061-4.119-13.556-7.888    c-0.841-0.91-2.17,0.479-1.333,1.385c2.989,3.221,5.366,7.135,9.794,8.464c5.507,1.658,9.275-2.494,13.577-5.037    c6.213-3.675,14.818-3.113,20.316,1.386l-4.748,15.37c-10.176,3.118-20.926,3.206-30.03-0.491    c-33.8-13.729-23.561-37.52-25.381-51.393c-1.157-8.824-12.328-7.16-9.748-29.86c1-8.801,4.119-29.041,2.247-34.5    c-2.094-5.063-5.302-16.763-0.355-20.119C126.251-4.151,132.747,8.414,138.992,9.626z"></path>
		<path fill="#64BDFF" d="M153.883,84.954c2.223,3.802,4.75,7.895,8.274,10.291c0.764,0.52,1.542,1.028,2.323,1.524    c-1.509-2.719-2.194-5.884-1.874-9.322c0.108-1.159,0.36-2.283,0.672-3.39c-0.462,0.001-0.949,0.011-1.508,0.022    C158.876,84.135,156.299,84.433,153.883,84.954z"></path>
		<path fill="#64BDFF" d="M182.865,90.926c3.838,1.789,7.736,3.131,11.663,4.095l-7.351,23.79c-0.946-1.512-1.909-3.012-2.896-4.471    c-2.596-3.833-5.758-7.264-9.261-10.279c-0.81-0.697-1.653-1.354-2.513-1.983c-0.078-0.14-0.194-0.265-0.364-0.36    c-0.335-0.189-0.655-0.39-0.966-0.592c-0.155-0.108-0.312-0.22-0.469-0.327c-5.919-4.156-7.108-10.664-5.247-16.713    c2.049,0.088,3.101,0.399,5.385,1.215C174.979,86.773,178.89,89.072,182.865,90.926z"></path>
		<path fill="#64BDFF" d="M169.051,101.977c0.629,0.479,1.303,0.921,2.011,1.332c3.659,2.605,6.916,5.968,9.673,9.438    c1.669,2.098,3.088,4.37,4.477,6.662c-4.316-2.526-9.748-3.186-14.801-2.177c-1.983,0.397-3.886,1.177-5.658,2.146    c-2.603,1.426-4.663,3.664-7.485,4.722c-6.195,2.329-10.061-4.119-13.556-7.888c-0.841-0.91-2.17,0.479-1.333,1.385    c2.989,3.221,5.366,7.135,9.794,8.464c5.507,1.658,9.275-2.494,13.577-5.037c6.213-3.675,14.818-3.113,20.316,1.386l-4.748,15.37    c-10.176,3.118-20.926,3.206-30.03-0.491c-25.195-10.236-25.921-26.058-25.408-39.2c6.851-3.766,13.672-7.598,20.829-10.774    c1.696-0.75,3.397-1.373,5.176-1.867c1.646,2.834,3.502,5.626,5.533,8.022C160.519,97.125,165.008,99.477,169.051,101.977z"></path>
		<path fill="#FFFFFF" d="M152.405,42.318c-1.054,1.828-2.483,3.369-3.578,5.159c-1.524,2.505-1.736,5.34-1.769,8.216    c-0.003,0.206-0.062,0.374-0.151,0.513c0.055,3.476-0.012,6.992,0.254,10.552c0.158,2.109,0.549,4.177,1.122,6.19    c0.462,1.024,0.84,2.097,1.111,3.217c0.008,0.035,0.01,0.068,0.013,0.104c0.883,2.25,1.972,4.428,3.202,6.513    c2.544,4.312,5.336,9.601,9.546,12.464c0.764,0.52,1.542,1.028,2.323,1.524c-1.509-2.719-2.194-5.884-1.874-9.322    c0.599-6.409,4.525-12.113,9.529-15.941c0.987-0.75,1.965,0.903,0.996,1.648c-8.99,6.875-12.422,20.62-2.422,27.644    c0.157,0.107,0.313,0.219,0.469,0.327c0.312,0.202,0.631,0.402,0.966,0.592c0.169,0.096,0.286,0.221,0.364,0.36    c0.86,0.63,1.703,1.286,2.513,1.983c3.503,3.016,6.665,6.446,9.261,10.279c0.987,1.459,1.951,2.959,2.896,4.471l-1.111,3.598    c-5.498-4.499-14.103-5.061-20.316-1.386c-4.302,2.543-8.07,6.695-13.577,5.037c-4.428-1.329-6.805-5.243-9.794-8.464    c-0.838-0.906,0.491-2.295,1.333-1.385c3.495,3.769,7.361,10.217,13.556,7.888c2.822-1.058,4.883-3.296,7.485-4.722    c1.771-0.969,3.674-1.748,5.658-2.146c5.053-1.009,10.484-0.35,14.801,2.177c-1.389-2.292-2.808-4.564-4.477-6.662    c-2.757-3.47-6.014-6.832-9.673-9.438c-0.708-0.411-1.382-0.854-2.011-1.332c-4.043-2.5-8.532-4.852-11.633-8.509    c-2.967-3.499-5.602-7.85-7.679-11.928c-1.321-2.588-2.542-5.312-3.371-8.128c-2.084-4.239-5.875-6.908-10.292-9.091    c-3.847-1.904-7.148-4.129-7.77-8.66c-0.163-1.227,1.761-1.225,1.924-0.019c0.745,5.469,6.956,6.623,10.887,9.138    c1.61,1.028,3.043,2.267,4.269,3.665c0.001-0.024-0.004-0.047-0.009-0.074c-0.869-9.485,1.093-19.194-3.425-28.024    c-0.561-1.101,1.079-2.101,1.644-1c1.541,3.018,2.362,6.075,2.802,9.177c0.6-1.5,1.433-2.946,2.567-4.464    c3.992-5.326,6.071-12.338,2.335-18.343c-0.66-1.052,0.986-2.047,1.64-0.997C156.39,30.266,155.578,36.817,152.405,42.318z"></path>
	</g>
	<g>
		<path fill="#FFD4B3" d="M190.006,109.657l-7.133,23.085c-1.273-1.133-2.523-2.278-3.785-3.396    c-0.043-0.158-0.126-0.313-0.278-0.455c-2.1-1.967-4.048-4.032-4.869-6.851c-0.585-2.013-0.758-4.107-1.395-6.12    c-1.923-6.053-6.21-11.072-12.634-12.264c-1.213-0.226-1.591,1.658-0.37,1.883c6.954,1.291,10.727,7.557,11.966,14.098    c0.354,1.86,0.861,3.45,1.563,4.906c-2.588-1.77-5.399-3.225-8.664-4.122c-1.194-0.327-1.564,1.558-0.371,1.886    c7.483,2.053,12.689,7.393,18.235,12.375l-1.529,4.954c-4.308,1.385-9.038,4.605-13.32,1.645    c-1.005-0.694-2.301,0.724-1.286,1.429c3.765,2.599,7.634,1.664,11.632,0.106c0.748-0.289,1.491-0.55,2.234-0.792l-6.379,20.652    c-4.026-0.818-8.896-3.285-15.406-10.748c-5.821-6.673-18.661-22.63-23.951-24.929c-5.152-1.869-15.953-7.395-15.093-13.312    c1.421-9.808,15.08-6.128,20.188-9.918c18.527-13.731,38.71-3.041,45.525,2.44C186.646,107.624,188.351,108.753,190.006,109.657z"></path>
		<path fill="#FFFFFF" d="M180.745,139.636l-0.739,2.388c-0.744,0.242-1.487,0.503-2.234,0.792    c-3.998,1.558-7.868,2.492-11.632-0.106c-1.015-0.705,0.281-2.123,1.286-1.429C171.707,144.241,176.437,141.021,180.745,139.636z"></path>
		<path fill="#FFFFFF" d="M172.547,115.92c0.637,2.013,0.81,4.107,1.395,6.12c0.821,2.818,2.769,4.884,4.869,6.851    c0.152,0.142,0.235,0.297,0.278,0.455c1.262,1.118,2.512,2.264,3.785,3.396l-0.6,1.939c-5.545-4.982-10.751-10.322-18.235-12.375    c-1.193-0.328-0.824-2.213,0.371-1.886c3.265,0.897,6.075,2.353,8.664,4.122c-0.702-1.456-1.208-3.046-1.563-4.906    c-1.24-6.541-5.012-12.807-11.966-14.098c-1.222-0.225-0.843-2.108,0.37-1.883C166.337,104.848,170.625,109.867,172.547,115.92z"></path>
	</g>
	<g>
		<path fill="#FFD4B3" d="M366.06,57.561c0.312-0.389,0.623-0.776,0.938-1.161c0.017-0.163,0.074-0.328,0.199-0.49    c1.745-2.259,3.328-4.587,3.687-7.479c0.253-2.065,0.092-4.145,0.397-6.216c0.926-6.231,4.33-11.828,10.434-14.011    c1.152-0.411,1.821,1.371,0.66,1.787c-6.606,2.364-9.312,9.098-9.49,15.697c-0.053,1.878-0.298,3.517-0.756,5.054    c2.255-2.142,4.777-4.01,7.834-5.408c1.119-0.508,1.777,1.278,0.662,1.791c-5.484,2.499-9.28,6.754-12.9,11.248l25.851,12.641    c5.127-8.473,12.892-21.403,16.949-24.006c4.748-2.647,14.454-9.767,12.676-15.424c-2.946-9.379-15.74-3.616-21.343-6.52    c-20.316-10.517-38.393,3.146-44.199,9.595c-7.304,8.116-14.51,9.662-20.357,8.837L366.06,57.561z"></path>
		<path fill="#FFFFFF" d="M370.883,48.431c-0.358,2.892-1.941,5.22-3.687,7.479c-0.125,0.162-0.183,0.327-0.199,0.49    c-0.314,0.385-0.626,0.772-0.938,1.161l1.664,0.813c3.62-4.494,7.416-8.749,12.9-11.248c1.115-0.513,0.457-2.299-0.662-1.791    c-3.057,1.398-5.579,3.267-7.834,5.408c0.458-1.537,0.703-3.176,0.756-5.054c0.179-6.6,2.884-13.333,9.49-15.697    c1.161-0.416,0.492-2.198-0.66-1.787c-6.104,2.183-9.508,7.779-10.434,14.011C370.975,44.286,371.136,46.365,370.883,48.431z"></path>
	</g>
	<g>
		<path fill="#B3DEFF" d="M436.405,146.338c-14.651,0.628-21.474-12.196-23.109-17.513c-3.763-12.252-13.281-11.623-17.1-10.954    c-1.906,0.329-4.755-0.169-7.754-1.43l1.959-30.477c0.811,0.794,1.629,1.578,2.455,2.335c2.176,1.983,4.641,3.637,7.254,4.983    c0.604,0.311,1.223,0.591,1.849,0.853c0.068,0.075,0.159,0.134,0.278,0.169c0.234,0.066,0.462,0.145,0.685,0.223    c0.111,0.043,0.227,0.088,0.339,0.133c7.226,2.859,7.145,11.869,2.605,17.455c-0.49,0.605,0.36,1.481,0.859,0.87    c2.525-3.108,4.108-7.219,3.526-11.27c-0.312-2.174-1.205-4.031-2.542-5.49c0.558,0.194,1.114,0.393,1.664,0.599    c3.029,1.147,5.54,4.002,7.753,6.293c1.069,1.106,2.067,2.291,2.948,3.553c0.006,0.021,0.012,0.042,0.021,0.061    c0.335,0.653,0.727,1.261,1.165,1.825c0.653,1.16,1.202,2.381,1.612,3.662c0.693,2.163,1.174,4.346,1.723,6.488    c-0.033,0.101-0.045,0.211-0.016,0.339c0.406,1.784,0.695,3.569,0.124,5.345c-0.411,1.27-1.066,2.434-1.446,3.72    c-1.146,3.875-0.676,8.048,2.281,10.963c0.561,0.553,1.431-0.306,0.866-0.859c-3.202-3.16-2.956-7.805-1.277-11.689    c0.476-1.107,0.776-2.125,0.925-3.144c0.732,1.854,1.694,3.623,3.094,5.26c0.514,0.599,1.38-0.265,0.868-0.862    c-4.104-4.791-4.331-11.086-6.276-16.823c-0.007-0.016-0.012-0.028-0.016-0.044c0.963,0.684,2.035,1.235,3.184,1.633    c2.803,0.973,6.815,0.766,8.088,4.036c0.281,0.724,1.471,0.438,1.188-0.296c-1.058-2.711-3.428-3.596-6.09-4.201    c-3.057-0.696-5.796-1.784-7.715-4.096c-0.931-1.621-2.09-3.123-3.29-4.528c-1.892-2.214-4.167-4.513-6.519-6.235    c-2.462-1.804-5.588-2.591-8.459-3.537c-0.46-0.202-0.942-0.376-1.44-0.523c-2.649-1.07-5.162-2.666-7.384-4.403    c-1.343-1.051-2.559-2.243-3.758-3.455c3.045,0.922,6.502,0.522,9.479-0.851c1.168-0.539,2.227-1.306,3.18-2.166    c1.398-1.27,2.34-2.957,3.929-4.032c3.484-2.36,6.835,1.056,9.555,2.866c0.654,0.439,1.271-0.619,0.618-1.054    c-2.328-1.549-4.377-3.617-7.313-3.781c-3.653-0.207-5.367,2.92-7.65,5.13c-3.297,3.195-8.701,4.123-12.77,2.158l0.656-10.209    c5.83-3.44,12.465-5.089,18.645-4.153c22.941,3.475,20.14,19.708,23.323,28.018c2.025,5.282,8.687,2.599,10.459,17.021    c0.688,5.589,1.763,18.571,3.731,21.668c2.045,2.821,5.767,9.579,3.205,12.392C446.329,152.969,440.447,146.161,436.405,146.338z"></path>
		<path fill="#64BDFF" d="M416.017,101.963c-1.938-2.021-4.107-4.179-6.643-5.139c-0.55-0.206-1.106-0.404-1.664-0.599    c1.337,1.459,2.23,3.316,2.542,5.49c0.104,0.732,0.117,1.463,0.087,2.195c0.287-0.071,0.587-0.147,0.932-0.238    C413.051,103.21,414.601,102.643,416.017,101.963z"></path>
		<path fill="#64BDFF" d="M397.206,102.569c-2.639-0.539-5.248-0.788-7.82-0.801l1.016-15.804c0.811,0.794,1.629,1.578,2.455,2.335    c2.176,1.983,4.641,3.637,7.254,4.983c0.604,0.311,1.223,0.591,1.849,0.853c0.068,0.075,0.159,0.134,0.278,0.169    c0.234,0.066,0.462,0.145,0.685,0.223c0.111,0.043,0.227,0.088,0.339,0.133c4.277,1.691,5.979,5.539,5.726,9.558    c-1.281,0.248-1.978,0.213-3.51,0.048C402.7,103.966,399.94,103.126,397.206,102.569z"></path>
		<path fill="#64BDFF" d="M404.11,93.686c-0.46-0.202-0.942-0.376-1.44-0.523c-2.649-1.07-5.162-2.666-7.384-4.403    c-1.343-1.051-2.559-2.243-3.758-3.455c3.045,0.922,6.502,0.522,9.479-0.851c1.168-0.539,2.227-1.306,3.18-2.166    c1.398-1.27,2.34-2.957,3.929-4.032c3.484-2.36,6.835,1.056,9.555,2.866c0.654,0.439,1.271-0.619,0.618-1.054    c-2.328-1.549-4.377-3.617-7.313-3.781c-3.653-0.207-5.367,2.92-7.65,5.13c-3.297,3.195-8.701,4.123-12.77,2.158l0.656-10.209    c5.83-3.44,12.465-5.089,18.645-4.153c17.101,2.591,19.897,12.269,21.53,20.472c-3.679,3.346-7.327,6.729-11.282,9.754    c-0.938,0.717-1.896,1.355-2.924,1.922c-1.439-1.505-3.002-2.957-4.611-4.137C410.107,95.419,406.981,94.632,404.11,93.686z"></path>
		<path fill="#FFFFFF" d="M423.259,128.109c0.38-1.286,1.035-2.45,1.446-3.72c0.571-1.775,0.282-3.561-0.124-5.345    c-0.029-0.128-0.018-0.238,0.016-0.339c-0.549-2.143-1.029-4.325-1.723-6.488c-0.41-1.281-0.959-2.502-1.612-3.662    c-0.438-0.564-0.83-1.172-1.165-1.825c-0.01-0.019-0.016-0.039-0.021-0.061c-0.881-1.262-1.879-2.446-2.948-3.553    c-2.213-2.291-4.724-5.146-7.753-6.293c-0.55-0.206-1.106-0.404-1.664-0.599c1.337,1.459,2.23,3.316,2.542,5.49    c0.582,4.051-1.001,8.161-3.526,11.27c-0.499,0.611-1.35-0.265-0.859-0.87c4.539-5.586,4.62-14.596-2.605-17.455    c-0.112-0.045-0.228-0.09-0.339-0.133c-0.223-0.078-0.45-0.156-0.685-0.223c-0.119-0.035-0.21-0.094-0.278-0.169    c-0.626-0.262-1.245-0.542-1.849-0.853c-2.613-1.347-5.078-3-7.254-4.983c-0.826-0.757-1.645-1.541-2.455-2.335l0.154-2.391    c4.068,1.965,9.473,1.037,12.77-2.158c2.283-2.21,3.997-5.337,7.65-5.13c2.936,0.164,4.984,2.232,7.313,3.781    c0.652,0.435,0.036,1.493-0.618,1.054c-2.72-1.811-6.07-5.227-9.555-2.866c-1.589,1.075-2.53,2.763-3.929,4.032    c-0.953,0.86-2.012,1.627-3.18,2.166c-2.977,1.373-6.434,1.772-9.479,0.851c1.199,1.212,2.415,2.404,3.758,3.455    c2.222,1.737,4.734,3.333,7.384,4.403c0.498,0.147,0.98,0.321,1.44,0.523c2.871,0.946,5.997,1.733,8.459,3.537    c2.352,1.723,4.627,4.021,6.519,6.235c1.2,1.405,2.359,2.907,3.29,4.528c1.919,2.312,4.658,3.399,7.715,4.096    c2.662,0.605,5.032,1.49,6.09,4.201c0.283,0.733-0.906,1.02-1.188,0.296c-1.272-3.271-5.285-3.063-8.088-4.036    c-1.148-0.397-2.221-0.949-3.184-1.633c0.004,0.016,0.009,0.028,0.016,0.044c1.945,5.737,2.173,12.032,6.276,16.823    c0.512,0.598-0.354,1.461-0.868,0.862c-1.399-1.637-2.361-3.405-3.094-5.26c-0.148,1.019-0.449,2.036-0.925,3.144    c-1.679,3.885-1.925,8.529,1.277,11.689c0.564,0.554-0.306,1.412-0.866,0.859C422.583,136.157,422.112,131.984,423.259,128.109z"></path>
	</g>
	<g>
		<path fill="#FFD4B3" d="M390.011,92.045l0.986-15.335c0.954,0.512,1.898,1.032,2.844,1.54c0.05,0.091,0.125,0.176,0.239,0.238    c1.591,0.905,3.103,1.895,4.028,3.513c0.66,1.16,1.078,2.43,1.771,3.581c2.087,3.458,5.482,5.925,9.633,5.709    c0.783-0.041,0.737-1.263-0.051-1.221c-4.492,0.232-7.756-3.08-9.492-6.941c-0.496-1.1-1.045-2.008-1.695-2.803    c1.863,0.708,3.816,1.192,5.97,1.265c0.788,0.022,0.736-1.197-0.05-1.222c-4.934-0.16-8.945-2.688-13.115-4.95l0.213-3.289    c2.457-1.496,4.904-4.188,7.991-2.991c0.724,0.279,1.315-0.793,0.584-1.076c-2.714-1.047-4.968,0.105-7.21,1.659    c-0.42,0.292-0.841,0.563-1.266,0.819l0.882-13.715c2.609-0.094,5.989,0.711,11.123,4.358    c4.591,3.265,14.897,11.228,18.511,11.863c3.464,0.393,10.965,2.206,11.311,5.993c0.576,6.276-8.418,6.026-11.013,9.13    c-9.421,11.241-23.489,7.626-28.518,5.247C392.392,92.804,391.169,92.36,390.011,92.045z"></path>
		<path fill="#FFFFFF" d="M391.292,72.13l0.1-1.589c0.425-0.257,0.846-0.527,1.266-0.819c2.242-1.554,4.496-2.706,7.21-1.659    c0.731,0.283,0.14,1.355-0.584,1.076C396.196,67.942,393.749,70.634,391.292,72.13z"></path>
		<path fill="#FFFFFF" d="M399.88,85.582c-0.693-1.151-1.111-2.421-1.771-3.581c-0.926-1.618-2.438-2.607-4.028-3.513    c-0.114-0.063-0.189-0.147-0.239-0.238c-0.945-0.508-1.89-1.028-2.844-1.54l0.082-1.291c4.17,2.263,8.182,4.79,13.115,4.95    c0.786,0.024,0.838,1.244,0.05,1.222c-2.153-0.072-4.106-0.557-5.97-1.265c0.65,0.795,1.199,1.703,1.695,2.803    c1.736,3.861,5,7.174,9.492,6.941c0.788-0.042,0.834,1.18,0.051,1.221C405.362,91.507,401.967,89.04,399.88,85.582z"></path>
	</g>
	
		<linearGradient id="SVGID_2_" gradientUnits="userSpaceOnUse" x1="-278.5669" y1="359.9648" x2="308.0146" y2="359.9648" gradientTransform="matrix(-0.7087 0 0 1 234.3201 0)">
		<stop offset="0" style="stop-color:#FFFFFF"></stop>
		<stop offset="0.3538" style="stop-color:#E9F5FF"></stop>
		<stop offset="0.7016" style="stop-color:#DBEFFF"></stop>
		<stop offset="1" style="stop-color:#D6EDFF"></stop>
	</linearGradient>
	<path fill="url(#SVGID_2_)" d="M428.896,360.631c9.735,0.496,4.061,8.529-176.625,6.197c-12.391-0.16-33.398,2.328-47.39,1.778   c-96.354-3.781-188.85,0.85-188.85-6.687c0-6.633,168.331-15.854,238.249-7.079C282.69,358.408,405.718,359.446,428.896,360.631z"></path>
	
		<linearGradient id="SVGID_3_" gradientUnits="userSpaceOnUse" x1="97.5132" y1="386.0801" x2="217.7617" y2="386.0801" gradientTransform="matrix(-0.9868 0 0 1 446.2535 0)">
		<stop offset="0" style="stop-color:#FFFFFF"></stop>
		<stop offset="0.3538" style="stop-color:#E9F5FF"></stop>
		<stop offset="0.7016" style="stop-color:#DBEFFF"></stop>
		<stop offset="1" style="stop-color:#D6EDFF"></stop>
	</linearGradient>
	<path fill="url(#SVGID_3_)" d="M349.216,386.516c2.778,0.326,1.158,5.58-50.416,4.054c-3.538-0.104-9.533,1.523-13.527,1.163   c-27.504-2.473-53.906,0.557-53.906-4.375c0-4.337,48.048-10.367,68.005-4.628C307.481,385.063,342.601,385.741,349.216,386.516z"></path>
	
		<linearGradient id="SVGID_4_" gradientUnits="userSpaceOnUse" x1="7.7656" y1="394.2959" x2="128.0137" y2="394.2959" gradientTransform="matrix(-0.9868 0 0 1 446.2535 0)">
		<stop offset="0" style="stop-color:#FFFFFF"></stop>
		<stop offset="0.3538" style="stop-color:#E9F5FF"></stop>
		<stop offset="0.7016" style="stop-color:#DBEFFF"></stop>
		<stop offset="1" style="stop-color:#D6EDFF"></stop>
	</linearGradient>
	<path fill="url(#SVGID_4_)" d="M437.778,394.731c2.779,0.323,1.159,5.58-50.416,4.053c-3.537-0.104-9.533,1.524-13.525,1.163   c-27.505-2.473-53.907,0.558-53.907-4.375c0-4.334,48.048-10.369,68.007-4.628C396.045,393.277,431.163,393.955,437.778,394.731z"></path>
	<rect x="169.296" y="42.427" fill="#7B4D42" width="232.407" height="318.271"></rect>
	<rect x="169.296" y="42.427" fill="#0F3871" width="232.407" height="318.271"></rect>
	<rect x="171.851" y="42.427" fill="#5E98FF" width="228.08" height="318.271"></rect>
	<polygon fill="#0F3871" points="394.691,350.752 180.843,349.899 180.843,58.163 364.372,56.46 394.691,85.921  "></polygon>
	<polygon fill="#FFFFFF" points="404.736,344.618 184.927,343.768 178.966,56.287 361.644,56.287 392.814,86.602  "></polygon>
	<path fill="#5E98FF" d="M260.706,164.871c0,1.799-1.564,3.255-3.493,3.255h-45.625c-1.929,0-3.492-1.456-3.492-3.255l0,0   c0-1.797,1.563-3.256,3.492-3.256h45.625C259.142,161.615,260.706,163.074,260.706,164.871L260.706,164.871z"></path>
	<path fill="#BCBCBC" d="M301.279,174.149c0,1.206-1.046,2.185-2.341,2.185h-88.311c-1.292,0-2.341-0.979-2.341-2.185l0,0   c0-1.207,1.049-2.182,2.341-2.182h88.311C300.233,171.968,301.279,172.942,301.279,174.149L301.279,174.149z"></path>
	<path fill="#BCBCBC" d="M301.279,181.81c0,1.208-1.046,2.186-2.341,2.186h-88.311c-1.292,0-2.341-0.978-2.341-2.186l0,0   c0-1.205,1.049-2.183,2.341-2.183h88.311C300.233,179.627,301.279,180.604,301.279,181.81L301.279,181.81z"></path>
	<path fill="#BCBCBC" d="M241.204,189.404c0,1.207-1.049,2.187-2.343,2.187h-28.233c-1.292,0-2.341-0.979-2.341-2.187l0,0   c0-1.205,1.049-2.183,2.341-2.183h28.233C240.155,187.222,241.204,188.199,241.204,189.404L241.204,189.404z"></path>
	<path fill="#5E98FF" d="M260.706,207.824c0,1.8-1.564,3.255-3.493,3.255h-45.625c-1.929,0-3.492-1.455-3.492-3.255l0,0   c0-1.796,1.563-3.255,3.492-3.255h45.625C259.142,204.569,260.706,206.028,260.706,207.824L260.706,207.824z"></path>
	<path fill="#BCBCBC" d="M301.279,217.104c0,1.205-1.046,2.185-2.341,2.185h-88.311c-1.292,0-2.341-0.979-2.341-2.185l0,0   c0-1.207,1.049-2.186,2.341-2.186h88.311C300.233,214.919,301.279,215.897,301.279,217.104L301.279,217.104z"></path>
	<path fill="#BCBCBC" d="M301.279,224.764c0,1.205-1.046,2.184-2.341,2.184h-88.311c-1.292,0-2.341-0.979-2.341-2.184l0,0   c0-1.205,1.049-2.185,2.341-2.185h88.311C300.233,222.579,301.279,223.559,301.279,224.764L301.279,224.764z"></path>
	<path fill="#BCBCBC" d="M241.204,232.36c0,1.204-1.049,2.183-2.343,2.183h-28.233c-1.292,0-2.341-0.979-2.341-2.183l0,0   c0-1.207,1.049-2.186,2.341-2.186h28.233C240.155,230.175,241.204,231.153,241.204,232.36L241.204,232.36z"></path>
	<path fill="#5E98FF" d="M260.706,253.053c0,1.797-1.564,3.255-3.493,3.255h-45.625c-1.929,0-3.492-1.458-3.492-3.255l0,0   c0-1.8,1.563-3.256,3.492-3.256h45.625C259.142,249.797,260.706,251.253,260.706,253.053L260.706,253.053z"></path>
	<path fill="#BCBCBC" d="M301.279,262.33c0,1.206-1.046,2.185-2.341,2.185h-88.311c-1.292,0-2.341-0.979-2.341-2.185l0,0   c0-1.205,1.049-2.183,2.341-2.183h88.311C300.233,260.147,301.279,261.125,301.279,262.33L301.279,262.33z"></path>
	<path fill="#BCBCBC" d="M301.279,269.991c0,1.207-1.046,2.185-2.341,2.185h-88.311c-1.292,0-2.341-0.978-2.341-2.185l0,0   c0-1.206,1.049-2.182,2.341-2.182h88.311C300.233,267.81,301.279,268.785,301.279,269.991L301.279,269.991z"></path>
	<path fill="#BCBCBC" d="M241.204,277.586c0,1.206-1.049,2.185-2.343,2.185h-28.233c-1.292,0-2.341-0.979-2.341-2.185l0,0   c0-1.205,1.049-2.183,2.341-2.183h28.233C240.155,275.403,241.204,276.381,241.204,277.586L241.204,277.586z"></path>
	<polygon fill="#D7C4A6" points="392.606,86.54 365.012,93.383 362.032,56.287  "></polygon>
	<polygon fill="#0F3871" points="392.814,86.602 361.296,86.76 361.644,56.287  "></polygon>
	<g>
		<path fill="#5E98FF" d="M321.36,144.528v-29.947h29.949v29.947H321.36z M347.105,140.325v-21.542h-21.54v21.542H347.105z"></path>
		<path fill="#5E98FF" d="M350.14,143.356h-27.607v-27.605h27.607V143.356z M324.396,141.495h23.879v-23.883h-23.879V141.495z"></path>
	</g>
	<g>
		<polygon fill="#5E98FF" points="325.638,128.873 328.61,125.9 334.692,131.981 343.772,120.238 347.098,122.811 335.097,138.332       "></polygon>
		<polygon fill="#5E98FF" points="334.984,136.563 327.292,128.873 328.61,127.557 334.807,133.75 343.983,121.88 345.456,123.019       "></polygon>
	</g>
	<g>
		<path fill="#FF5F4A" d="M322.288,189.875v-29.948h29.948v29.948H322.288z M348.032,185.671V164.13h-21.539v21.541H348.032z"></path>
		<path fill="#FF5F4A" d="M351.065,188.702h-27.607v-27.606h27.607V188.702z M325.321,186.843h23.881v-23.885h-23.881V186.843z"></path>
	</g>
	<g>
		<path fill="#5E98FF" d="M323.396,233.424v-29.947h29.951v29.947H323.396z M349.141,229.222V207.68h-21.539v21.542H349.141z"></path>
		<path fill="#5E98FF" d="M352.175,232.254h-27.608v-27.607h27.608V232.254z M326.431,230.392h23.881v-23.881h-23.881V230.392z"></path>
	</g>
	<g>
		<polygon fill="#5E98FF" points="327.673,217.765 330.646,214.795 336.729,220.878 345.808,209.135 349.132,211.707     337.134,227.228   "></polygon>
		<polygon fill="#5E98FF" points="328.567,262.834 331.54,259.866 337.624,265.945 346.703,254.203 350.026,256.776     338.028,272.296   "></polygon>
		<polygon fill="#5E98FF" points="337.021,225.461 329.329,217.765 330.646,216.453 336.843,222.645 346.018,210.777     347.49,211.918   "></polygon>
	</g>
	<g>
		<path fill="#5E98FF" d="M324.323,278.042v-29.947h29.948v29.947H324.323z M350.067,273.842V252.3h-21.539v21.542H350.067z"></path>
		<path fill="#5E98FF" d="M353.102,276.873h-27.608v-27.607h27.608V276.873z M327.357,275.009h23.88v-23.878h-23.88V275.009z"></path>
	</g>
	<path fill="#B4D0D3" d="M359.635,57.413c0,9.49,0,12.508,0,12.508l-142.378-1.703l-2.555-0.853l2.555-9.952   c0-9.49,7.693-17.183,17.183-17.183l105.457-2.554C349.386,37.677,359.635,47.923,359.635,57.413L359.635,57.413z"></path>
	<path fill="#FFD4B3" d="M339.896,37.677c-33.586,0-34.964-9.341-35.424-10.993c-2.269-8.131-9.727-14.094-18.58-14.094   c-8.801,0-16.226,5.896-18.54,13.951c-0.487,1.695-3.281,11.136-35.467,11.136l0,0c-9.491,0-17.183,7.691-17.183,17.184   c0,9.487,0,12.505,0,12.505h142.38c0,0,0-3.018,0-12.505C357.081,45.368,349.386,37.677,339.896,37.677z M285.892,17.146   c4.163,0,7.535,3.375,7.535,7.541c0,4.16-3.372,7.535-7.535,7.535c-4.162,0-7.538-3.375-7.538-7.535   C278.354,20.521,281.729,17.146,285.892,17.146z"></path>
	<path fill="#FFD4B3" d="M339.896,37.677c-33.586,0-34.964-9.341-35.424-10.993c-2.19-7.848-9.217-13.655-17.659-14.056   c0.052,0.245,0.091-0.36,0.117-0.108c7.62,0.701,11.521,6.342,13.345,11.021c2.214,5.677,3.924,11.282,12.966,13.622   c5.98,1.55,11.821,2.749,29.279,5.225c0.931,0.131,7.284,1.591,7.284,8.211c0,12.919,2.188,16.768-5.962,16.768h13.239   c0,0,0-3.018,0-12.505C357.081,45.368,349.386,37.677,339.896,37.677z"></path>
	<path fill="#E5A67C" d="M214.701,60.481c0,5.098,0,6.884,0,6.884h142.38c0,0,0-1.786,0-6.884H214.701z"></path>
	<g>
		<path fill="none" d="M285.892,32.223c4.163,0,7.535-3.375,7.535-7.535c0-4.166-3.372-7.541-7.535-7.541    c-4.162,0-7.538,3.375-7.538,7.541C278.354,28.848,281.729,32.223,285.892,32.223z"></path>
	</g>
	<g>
		<path fill="none" d="M284.278,26.382c-2.123,1.244-4.117,1.087-5.686,0.155c0.826,3.264,3.775,5.686,7.299,5.686    c1.233,0,2.39-0.302,3.418-0.825c-0.525-1.004-1.084-1.978-1.742-2.824c-0.565-0.732-1.201-1.796-2.006-2.303    c-0.355-0.227-0.332-0.439-0.269-0.558C285.17,25.818,284.887,26.028,284.278,26.382z"></path>
	</g>
	<path fill="#E5A67C" d="M263.443,33.126c-13.536,7.238-34.394,6.386-34.394,6.386c1.869,0,24.149,1.984,35.804-3.387   c9.444-4.355,9.222-13.144,6.483-13.144C269.467,22.981,270.103,29.567,263.443,33.126z"></path>
	<path fill="#5E98FF" d="M260.706,118.969c0,1.799-1.564,3.257-3.493,3.257h-45.625c-1.929,0-3.492-1.458-3.492-3.257l0,0   c0-1.797,1.563-3.255,3.492-3.255h45.625C259.142,115.714,260.706,117.172,260.706,118.969L260.706,118.969z"></path>
	<path fill="#BCBCBC" d="M301.279,128.248c0,1.207-1.046,2.184-2.341,2.184h-88.311c-1.292,0-2.341-0.977-2.341-2.184l0,0   c0-1.207,1.049-2.185,2.341-2.185h88.311C300.233,126.063,301.279,127.041,301.279,128.248L301.279,128.248z"></path>
	<path fill="#BCBCBC" d="M301.279,135.909c0,1.205-1.046,2.185-2.341,2.185h-88.311c-1.292,0-2.341-0.979-2.341-2.185l0,0   c0-1.206,1.049-2.185,2.341-2.185h88.311C300.233,133.725,301.279,134.703,301.279,135.909L301.279,135.909z"></path>
	<path fill="#BCBCBC" d="M241.204,143.503c0,1.208-1.049,2.186-2.343,2.186h-28.233c-1.292,0-2.341-0.978-2.341-2.186l0,0   c0-1.204,1.049-2.182,2.341-2.182h28.233C240.155,141.321,241.204,142.299,241.204,143.503L241.204,143.503z"></path>
	<path fill="#FDC8A8" d="M367.752,248.61c-4.358-4.366-7.448,2.591-4.292,4.944c1.165,0.868,10.195,1.938,10.195,1.938l1.491-4.714   C375.146,250.779,369.127,249.988,367.752,248.61z"></path>
	<g>
		
			<linearGradient id="SVGID_5_" gradientUnits="userSpaceOnUse" x1="338.0186" y1="373.7666" x2="478.1074" y2="373.7666" gradientTransform="matrix(-0.9905 0 0 1 807.4116 -4.882813e-004)">
			<stop offset="0" style="stop-color:#FFFFFF"></stop>
			<stop offset="0.3538" style="stop-color:#E9F5FF"></stop>
			<stop offset="0.7016" style="stop-color:#DBEFFF"></stop>
			<stop offset="1" style="stop-color:#D6EDFF"></stop>
		</linearGradient>
		<path fill="url(#SVGID_5_)" d="M471.655,374.004c3.251,0.176,1.355,3.033-58.954,2.203c-4.136-0.058-11.147,0.829-15.817,0.633    c-32.163-1.346-63.037,0.303-63.037-2.38c0-2.357,56.188-5.637,79.525-2.517C422.854,373.213,463.92,373.582,471.655,374.004z"></path>
		<g>
			<g>
				<path fill="#0F3871" d="M417.466,326.702c-0.003,3.495,2.158,1.025,4.646,1.58l1.822,4.32c2.485,0.558,3.912-5.804,4.695-9.014      l14.76-32.705c0.781-3.209-3.285-8.794-5.774-9.35l-4.644,2.282c-2.484-0.557-9.271,0.675-10.055,3.886L417.466,326.702z"></path>
			</g>
		</g>
		<polygon fill="#FDC8A8" points="419.096,373.403 422.823,373.337 422.842,367.535 419.116,367.603   "></polygon>
		<path fill="#FDC8A8" d="M422.842,367.535l-0.005,2.017c-0.217-0.067-0.456-0.082-0.699-0.037c-0.97,0.185-1.816,0.341-2.107,1.356    c-0.16,0.563,0.166,1.241,0.359,1.754c0.092,0.25,0.186,0.499,0.27,0.753l-1.563,0.025l0.021-5.801L422.842,367.535z"></path>
		<path fill="#0F3871" d="M406.042,372.722c-0.049-0.063-0.02-0.231-0.001-0.688c0.027-0.646,4.56-1.471,7.355-1.907    c0.542-0.083,1.688-0.417,2.047-0.736c0.362-0.331,0.135-0.31,0.382-0.195c0.754,0.343,1.402-0.021,2.03,0.002l-0.326,4.834    c-3.778-0.126-9.577-0.371-10.81-0.422c-0.762-0.027-0.738-0.338-0.723-0.723C406.001,372.827,406.023,372.773,406.042,372.722z"></path>
		<path fill="#C591A5" d="M406.042,372.722c-0.049-0.063-0.02-0.231-0.001-0.688c0.027-0.646,4.56-1.471,7.355-1.907    c0.542-0.083,1.688-0.417,2.047-0.736c0.362-0.331,0.135-0.31,0.382-0.195c0.754,0.343,1.271-0.025,2.03,0.002l-0.326,4.834    c-3.778-0.126-9.577-0.371-10.81-0.422c-0.762-0.027-0.738-0.338-0.723-0.723C406.001,372.827,406.023,372.773,406.042,372.722z"></path>
		<path fill="#0F3871" d="M417.591,373.138l-0.063,0.894c-3.779-0.126-9.578-0.374-10.809-0.422    c-0.764-0.027-0.738-0.338-0.723-0.723c0.006-0.053,0.026-0.103,0.041-0.147L417.591,373.138z"></path>
		<path fill="#DB967F" d="M417.587,373.18l-0.058,0.852c-3.778-0.126-9.577-0.371-10.81-0.422c-0.762-0.027-0.738-0.338-0.723-0.723    c0.004-0.039,0.02-0.073,0.031-0.106L417.587,373.18z"></path>
		<path fill="#0F3871" d="M408.159,372.96c-0.02,0.387-0.044,0.697,0.72,0.728c1.811,0.068,13.532,0.568,14.12,0.488    c0.324-0.047,0.77-0.288,0.785-0.674l0,0c0.02-0.386-0.305-0.712-0.72-0.726l-14.122-0.488    C408.527,372.273,408.176,372.574,408.159,372.96L408.159,372.96z"></path>
		<g>
			<g>
				<path fill="#0F3871" d="M423.8,373.221c0.014,0.248-4.825,0.008-15.428-0.376c-0.253-0.013-0.207-0.017-0.176-0.735      c0.033-0.646,4.565-1.473,7.355-1.907c0.547-0.082,1.693-0.419,2.045-0.736c0.367-0.33,0.141-0.309,0.385-0.195      c4.699,2.136,4.495-0.402,5.256-0.085C424.138,369.567,423.773,372.79,423.8,373.221z"></path>
			</g>
		</g>
		<path fill="#0F3871" d="M415.786,371.396c0.02,0.045,0.099,0.059,0.178,0.028l0,0c0.074-0.028,0.12-0.093,0.098-0.139    l-0.533-1.192c-0.02-0.046-0.1-0.063-0.177-0.032l0,0c-0.078,0.028-0.121,0.094-0.097,0.144L415.786,371.396z"></path>
		<path fill="#0F3871" d="M414.666,371.391c0.012,0.038,0.087,0.054,0.166,0.03l0,0c0.079-0.023,0.134-0.072,0.123-0.114    l-0.316-0.976c-0.009-0.038-0.084-0.052-0.163-0.031l0,0c-0.079,0.022-0.133,0.074-0.121,0.112L414.666,371.391z"></path>
		<path fill="#0F3871" d="M413.724,371.185c0.006,0.025,0.076,0.029,0.155,0.009l0,0c0.079-0.018,0.141-0.055,0.136-0.079    l-0.174-0.616c-0.004-0.026-0.076-0.031-0.156-0.012l0,0c-0.078,0.02-0.14,0.055-0.134,0.082L413.724,371.185z"></path>
		<g>
			<g>
				<path fill="#0F3871" d="M422.22,322.063l1.164-0.084c2.568-0.193,4.04,1.468,4.031,5.111l-3.699,38.629l-0.396,3.23      l-5.023-0.524l-0.946-40.372C417.356,324.406,419.651,322.253,422.22,322.063z"></path>
			</g>
		</g>
		<path fill="#F48BAA" d="M435.071,291.933l2.757,11.642l-9.198,20.015c-0.317,1.307-0.744,3.127-1.305,4.8    c-0.114-1.563,2.414-12.966,5.362-21.994C435.225,298.625,433.825,292.832,435.071,291.933z"></path>
		<g>
			<g>
				<path fill="#0F3871" d="M436.927,328.07c0.607,3.264,5.168-0.397,7.855-0.88l1.217-0.217c2.688-0.479,3.789-3.432,3.182-6.702      l-4.396-33.719c-0.607-3.263-2.123-9.036-4.811-8.558l-3.589,3.949c-2.683,0.481-9.879,6.39-9.271,9.658L436.927,328.07z"></path>
			</g>
		</g>
		<polygon fill="#FDC8A8" points="451.655,370.492 455.354,369.988 454.628,364.24 450.929,364.742   "></polygon>
		<path fill="#FDC8A8" d="M454.628,364.24l0.252,1.996c-0.223-0.042-0.465-0.027-0.701,0.047c-0.939,0.296-1.761,0.552-1.92,1.593    c-0.089,0.576,0.327,1.209,0.583,1.691c0.126,0.237,0.249,0.474,0.366,0.714l-1.553,0.211l-0.727-5.75L454.628,364.24z"></path>
		<g>
			<path fill="#0F3871" d="M443.221,373.85c-0.05-0.061-0.052-0.229-0.104-0.681c-0.07-0.641,3.615-1.827,5.902-2.485     c0.443-0.127,1.357-0.551,1.609-0.895c0.258-0.357,0.069-0.315,0.291-0.224c0.688,0.276,1.179-0.138,1.709-0.165l0.445,4.813     c-3.197,0.18-8.108,0.407-9.149,0.459c-0.647,0.033-0.674-0.274-0.716-0.657C443.2,373.957,443.214,373.905,443.221,373.85z"></path>
			<path fill="#C591A5" d="M443.221,373.85c-0.05-0.061-0.052-0.229-0.104-0.681c-0.07-0.641,3.615-1.827,5.902-2.485     c0.443-0.127,1.357-0.551,1.609-0.895c0.258-0.357,0.069-0.315,0.291-0.224c0.688,0.276,1.065-0.131,1.709-0.165l0.445,4.813     c-3.197,0.18-8.108,0.407-9.149,0.459c-0.647,0.033-0.674-0.274-0.716-0.657C443.2,373.957,443.214,373.905,443.221,373.85z"></path>
			<path fill="#0F3871" d="M452.991,373.323l0.081,0.888c-3.197,0.183-8.108,0.41-9.149,0.462c-0.646,0.033-0.673-0.274-0.715-0.657     c-0.008-0.052,0.006-0.104,0.013-0.149L452.991,373.323z"></path>
			<path fill="#DB967F" d="M452.995,373.367l0.078,0.847c-3.197,0.18-8.108,0.407-9.149,0.459c-0.647,0.033-0.674-0.274-0.716-0.657     c-0.004-0.039,0.004-0.075,0.009-0.109L452.995,373.367z"></path>
			<path fill="#0F3871" d="M446.238,373.844c0.042,0.384,0.067,0.694,0.619,0.666c1.308-0.059,9.771-0.401,10.183-0.525     c0.227-0.069,0.512-0.337,0.47-0.722l0,0c-0.042-0.384-0.317-0.683-0.617-0.668l-10.185,0.528     C446.408,373.137,446.199,373.459,446.238,373.844L446.238,373.844z"></path>
			<g>
				<g>
					<path fill="#0F3871" d="M457.479,372.983c0.045,0.245-3.453,0.354-11.104,0.729c-0.181,0.007-0.147-0.002-0.224-0.715       c-0.07-0.641,3.062-1.786,5.002-2.416c0.379-0.12,1.152-0.536,1.363-0.874c0.217-0.356,0.056-0.316,0.248-0.224       c3.664,1.783,3.164-0.719,3.752-0.457C457.214,369.342,457.401,372.557,457.479,372.983z"></path>
				</g>
			</g>
			<path fill="#0F3871" d="M452.419,371.276c0.02,0.042,0.078,0.051,0.13,0.02l0,0c0.052-0.036,0.075-0.103,0.054-0.147     l-0.541-1.146c-0.02-0.046-0.079-0.057-0.13-0.025l0,0c-0.051,0.034-0.075,0.103-0.054,0.148L452.419,371.276z"></path>
			<path fill="#0F3871" d="M451.319,371.48c0.015,0.039,0.069,0.047,0.122,0.019l0,0c0.055-0.024,0.087-0.078,0.071-0.116     l-0.352-0.95c-0.012-0.038-0.068-0.05-0.123-0.021l0,0c-0.053,0.025-0.086,0.077-0.07,0.117L451.319,371.48z"></path>
			<path fill="#0F3871" d="M450.385,371.623c0.009,0.024,0.058,0.025,0.112-0.002l0,0c0.056-0.021,0.097-0.062,0.087-0.084     l-0.203-0.604c-0.007-0.024-0.062-0.025-0.114,0l0,0c-0.057,0.022-0.094,0.062-0.088,0.086L450.385,371.623z"></path>
			<path fill="#0F3871" d="M451.968,370.133c0.057,0.004,0.102-0.036,0.098-0.093l0,0c-0.009-0.058-0.067-0.11-0.126-0.118     l-1.528-0.14c-0.062-0.007-0.105,0.034-0.1,0.09l0,0c0.008,0.06,0.064,0.111,0.127,0.117L451.968,370.133z"></path>
			<path fill="#0F3871" d="M451.073,370.594c0.054,0.006,0.094-0.034,0.09-0.091l0,0c-0.002-0.057-0.044-0.108-0.097-0.114     l-1.314-0.159c-0.05-0.007-0.091,0.035-0.091,0.093l0,0c0.002,0.056,0.049,0.107,0.1,0.111L451.073,370.594z"></path>
			<path fill="#0F3871" d="M450.286,371.072c0.051,0.014,0.099-0.022,0.105-0.077l0,0c0.006-0.056-0.031-0.114-0.081-0.125     l-1.268-0.338c-0.054-0.016-0.101,0.019-0.107,0.077l0,0c-0.007,0.055,0.029,0.112,0.079,0.124L450.286,371.072z"></path>
		</g>
		<g>
			<g>
				<path fill="#0F3871" d="M443.083,320.45l1.191-0.349c2.624-0.78,4.538,0.493,5.373,4.041l5.079,38.435l0.335,3.235l-5.345,0.651      l-12.79-38.394C436.095,324.523,440.458,321.233,443.083,320.45z"></path>
			</g>
		</g>
		<path fill="#F48BAA" d="M427.733,293.87c0.289,0.079,8.611,24.464,9.18,26.832c0.931,3.88,12.125,39.54,14.143,45.599    l-1.339,0.163l-11.937-36.308c-0.206-0.543-0.761-1.477-0.854-2.086l-7.413-27.266L427.733,293.87z"></path>
		<path fill="#F48BAA" d="M417.35,328.053c0-0.477,0.044-0.922,0.116-1.345v-0.006l5.451-39c0.784-3.211,7.57-4.442,10.055-3.886    l4.644-2.282c0.825,0.184,1.481,0.941,1.962,1.987c1.413-0.59,2.781-0.93,3.698-0.934l1.235-0.008    c1.887-0.009,4.996,4.089,6.211,6.154l-0.139,1.075c0,0-9.056,0.778-14.685-1.603c0,0-0.231,0.808-5.84,2.531    c-3.795,1.168-8.823,32.438-9.226,35.539c-1.528,11.811-0.692,31.983-0.266,42.216l-2.271-0.068L417.35,328.053z"></path>
		<g>
			<g>
				<path fill="#0F3871" d="M372.17,252.006l27.837-6.568c0.375,3.343,3.226,5.353,3.226,5.353c1.122,4.353-7.013,5.624-9.84,5.553      l-20.714,3.071c-1.086-0.037-1.859-3.964-1.564-6.289C371.312,251.577,372.17,252.006,372.17,252.006z"></path>
			</g>
		</g>
		<g>
			<g>
				<path fill="#0F3871" d="M404.574,236.234l10.987-0.611c3.277-0.413,12.017-3.191,14.846-1.267l-5.719,17.004      c-2.182-4.107-10.011-5.354-13.078-4.966l-11.604,0.079c-1.06,0.07-1.49,0.077-2.622,0.062l-0.945-10.107      C398.592,236.417,401.257,236.547,404.574,236.234z"></path>
			</g>
		</g>
		<path fill="#F48BAA" d="M415.289,236.823c-6.695,0.354-14.326,1.623-16.237,0.611c-2.051-1.086-7.345-8.409-7.369-8.5l7.566,7.524    l16.313-0.836c0.883-0.193,3.911-0.775,5.876-1.188c6.95-1.465,8.647-0.228,8.647-0.228    C431.371,235.801,417.532,236.705,415.289,236.823z"></path>
		<polygon fill="#F2EBDD" points="429.84,233.95 428.858,249.458 436.923,262.576 444.06,249.458 444.06,233.496   "></polygon>
		<path fill="#0F3871" d="M443.423,233.231L443.423,233.231c1.066,2.439,1.578,5.113,1.625,7.715    c0.032,1.753-8.125,21.63-8.125,21.63c-1.096,0.208-2.359-9.338-3.184-9.868c-1.707-1.097-0.664-6.003-2.09-7.424    c-2.921-2.908-1.215-8.197-2.05-12.053l0,0c-7.987,0.481-8.34,1.744-9.302,3.028c-1.234,1.648-1.57,2.407-1.57,4.977l2.932,42.442    c0.186,2.31,0.484,8.613,0.484,8.613c0.42,0.894,13.586-1.24,16.107-3.638c0,0,1.494,3.638,13.479,4.909    c1.541,0.163,0.846-7.991,1.092-9.431l0.149-42.475C451.534,237.191,447.868,233.231,443.423,233.231z"></path>
		<path fill="#F48BAA" d="M420.862,235.636c1.043-1.054,1.034-1.737,8.737-2.404c0.095,0.443,0.152,0.901,0.195,1.375    c-0.677,0.486-2.077,0.074-2.931,0.183c-2.74,0.346-5.66,0.083-5.479,3.327c0.242,4.385-0.082,14.245,0.342,18.594    c0.832,8.536,2.3,25.648,2.356,27.51c0.05,1.668,0.092,3.877,1.513,4.999c2.544,2.009,11.035-0.512,12.043-0.107    c-3.545,2.202-15.104,4.019-15.496,3.181c0,0-0.299-6.304-0.484-8.613l-2.932-42.442    C418.728,238.334,419.414,237.1,420.862,235.636z"></path>
		<g>
			<path fill="#FDC8A8" d="M438.243,288.562c0.006,0.059,0.008,0.093,0.008,0.093C438.249,288.651,438.245,288.616,438.243,288.562z     "></path>
		</g>
		<g>
			<path fill="#FDC8A8" d="M443.033,234.78c-0.159,1.874-2.528,2.654-5.618,2.367l-0.259,0.512c-3.087-0.274-5.46-2.017-5.306-3.888     l1.688-14.113c0.16-1.869,2.284-3.198,5.375-2.921l0,0c3.083,0.28,4.454,1.939,4.298,3.817L443.033,234.78z"></path>
		</g>
		<path fill="#0F3871" d="M426.487,234.394c1.137-1.933,3.273-2.274,3.313-2.109c1.486,6.146,7.188,29.494,7.416,29.354    c0,0-8.877-22.969-7.441-28.904c0.042-0.165,16.727,0.362,17.249,1.202c0,0,1.759,2.249,1.268,2.974    c-0.231,0.333-2.128,1.091-2.128,1.091s1.665,2.042,1.461,2.563c-0.723,1.843-5.197,8.35-9.919,22.078    c0.126,6.858,0.46,24.107,0.538,25.92c-0.142-1.985-1.762-25.479-1.803-25.645c-3.035-12.239-9.244-19.356-10.063-21.441    c-0.204-0.523,1.461-2.563,1.461-2.563s-1.896-0.757-2.129-1.091C425.219,237.096,426.487,234.394,426.487,234.394z"></path>
		<ellipse fill="#F48BAA" cx="438.507" cy="274.716" rx="0.648" ry="0.602"></ellipse>
		<ellipse fill="#F48BAA" cx="435.078" cy="265.974" rx="0.649" ry="0.602"></ellipse>
		<ellipse fill="#F48BAA" cx="436.34" cy="282.464" rx="0.648" ry="0.602"></ellipse>
		<path fill="#FDC8A8" d="M427.124,222.548c0.021,3.164,2.084,6.538,3.967,6.953c2.11,0.459,10.545-1.545,11.529-3.378    c2.717-5.065,4.549-18.75-5.541-19.237c-2.691-0.128-7.272-1.693-8.762,3.237C427.372,213.262,427.102,219.354,427.124,222.548z"></path>
		<g>
			<g>
				<path fill="#0F3871" d="M433.563,203.889c-0.727-0.871,0.409,3.85-1.668,2.405c-0.932-0.646-3.169-0.041-4.368,2.122      l9.364,2.449c0.588,0.007,1.178,0.015,1.768,0.042c1.387,0.063-2.863,10.484-2.685,12.002      c10.466,14.142,10.124-7.949,10.897-8.419C446.543,206.128,436.061,206.883,433.563,203.889z"></path>
			</g>
		</g>
		<path fill="#0F3871" d="M427.967,204.109c-0.329,1.048,0.575,2.462,2.021,3.158c1.443,0.697,3.959-0.649,4.291-1.697    c0.329-1.043-1.332-0.15-2.776-1.554C430.308,202.854,428.299,203.063,427.967,204.109z"></path>
		<path fill="#0F3871" d="M421.482,208.923c-0.271,1.54,0.151,3.257,2.602,4.248c4.397,1.782,2.347-1.175,8.455,0.386    c0.522,0.134-0.892,3.463,1.243,2.88c5.306-1.451,2.192,6.473,2.192,6.473c0.89,0.014,3.355-8.606,3.475-9.288    c0.581-3.296-2.972-7.019-7.93-8.313C426.558,204.01,422.064,205.63,421.482,208.923z"></path>
		<g>
			<path fill="#3D5B69" d="M336.849,225.271c-0.357,0.886,1.492,2.462,2.38,2.816c0.888,0.356,16.933,9.559,17.289,8.669     c0.355-0.888,4.786-8.353,3.898-8.707C359.527,227.692,337.203,224.381,336.849,225.271z"></path>
			<path fill="#F9ECD7" d="M355.003,231.06c-0.555,1.388-1.764,3.228-0.761,4.349c9.801,10.935,12.249,24.315,27.886,30.579     l61.875,19.849c19.885-3.342,4.449-27.524,6.977-33.833l-52.242-27.491c-13.868-5.556-24.277,0.534-41.606,3.179     C355.812,227.892,355.51,229.797,355.003,231.06z"></path>
			<path fill="#FFFFFF" d="M384.606,222.351c-8.139,0.562-16.393,3.648-27.476,5.34c-0.266,0.04-0.481,0.163-0.675,0.323     c1.572,0.204,3.145,0.738,4.586,1.597c2.65,1.579,7.77,0.291,10.65,0.131c3.404-0.189,6.616-0.169,9.822,0.327L384.606,222.351z"></path>
			<path fill="#E5CAA3" d="M450.979,252.003L425.78,238.74c3.089,6.568-2.934,16.305-11.463,12.675     c-9.658-4.114-19.098-8.678-28.455-13.415c0.204,1.451,0.043,2.989-0.574,4.525c-1.743,4.357-7.448,7.26-11.898,5.096     c-4.533-2.204-7.869-5.076-11.272-8.754c-2.046-2.212-3.497-4.376-6.452-4.721c-0.621-0.072-1.194-0.203-1.738-0.362     c-0.125,0.606-0.088,1.173,0.315,1.624c9.801,10.935,12.249,24.315,27.886,30.579l61.875,19.849     C463.888,282.494,448.452,258.312,450.979,252.003z"></path>
			<path fill="#FFD4B3" d="M369.694,236.944c-4.898,12.234,0.199,24.143,12.434,29.043l74.299,31.394     c19.884-3.338,9.552-40.268,12.08-46.577l-69.77-26.292C385.987,219.839,374.595,224.709,369.694,236.944z"></path>
			<path fill="#E5A67C" d="M468.942,276.171c-1.865,3.942-6.135,6.709-11.346,4.621l-89.686-35.911     c-0.506,9.184,4.668,17.282,14.217,21.106l74.299,31.394C466.061,295.764,468.595,286.256,468.942,276.171z"></path>
			<path fill="#FFE2CF" d="M464.401,263.801c2.088,0.836,3.524,2.132,4.416,3.647c-0.398-7.596-1.261-14.275-0.311-16.645     l-69.77-26.292c-9.039-3.313-17.383-1.81-23.227,3.693L464.401,263.801z"></path>
			<path fill="#CEBFA3" d="M471.224,251.894l-2.717-1.09c-12.236-4.897-26.127,1.048-31.027,13.284     c-4.898,12.235,1.048,26.126,13.283,31.025l2.717,1.089L471.224,251.894z"></path>
			<circle fill="#F2EBDD" cx="463.477" cy="274.498" r="23.865"></circle>
			<path fill="#CEBFA3" d="M476.886,254.162l-2.716-1.089c-12.236-4.899-26.126,1.049-31.025,13.282     c-4.899,12.235,1.046,26.126,13.282,31.025l2.717,1.09L476.886,254.162z"></path>
			<circle fill="#F2EBDD" cx="469.14" cy="276.767" r="23.865"></circle>
			<path fill="#5E98FF" d="M451.985,269.896c-3.936,9.83,0.842,20.988,10.672,24.926c3.687,1.475,9.913,3.969,9.913,3.969     c5.791-7.44,11.794-29.452,14.253-35.595c0,0-0.081-0.033-9.911-3.97C467.081,255.289,455.922,260.066,451.985,269.896z"></path>
			<path fill="#0F3871" d="M451.985,269.896c-3.936,9.83,0.842,20.988,10.672,24.926c3.687,1.475,9.913,3.969,9.913,3.969     c5.791-7.44,11.794-29.452,14.253-35.595c0,0-0.081-0.033-9.911-3.97C467.081,255.289,455.922,260.066,451.985,269.896z"></path>
			<circle fill="#5E98FF" cx="479.696" cy="280.993" r="19.171"></circle>
		</g>
		<path fill="#FDC8A8" d="M409.021,274.896c-5.644-3.081-6.688,4.785-2.839,6.209c1.424,0.526,10.767-1.063,10.767-1.063    l0.104-5.153C417.053,274.889,410.8,275.871,409.021,274.896z"></path>
		<g>
			<g>
				<path fill="#0F3871" d="M450.132,236.101c5.164,7.033,1.67,14.116,0.876,16.646l-3.546,10.708      c-0.935,3.345-3.501,7.529-4.516,10.313l-9.711,0.42c2.359-2.422,1.541-2.512,1.811-3.59l4.221-24.392      c1.204-5.703-3.326-7.673-3.326-7.673L450.132,236.101z"></path>
			</g>
		</g>
		<g>
			<g>
				<path fill="#0F3871" d="M414.198,274.691l22.909-6.669c0.433,3.837,6.187,3.024,6.187,3.024c1.196,4.99-6.873,6.587-9.688,6.552      l-19.895,3.523c-1.079-0.026-0.794-2.443-0.543-5.123C413.337,274.216,414.198,274.691,414.198,274.691z"></path>
			</g>
		</g>
	</g>
	<g>
		
			<linearGradient id="SVGID_6_" gradientUnits="userSpaceOnUse" x1="-15.2095" y1="373.6172" x2="127.9609" y2="373.6172" gradientTransform="matrix(-0.7976 0 0 1 154.9075 0)">
			<stop offset="0" style="stop-color:#FFFFFF"></stop>
			<stop offset="0.3538" style="stop-color:#E9F5FF"></stop>
			<stop offset="0.7016" style="stop-color:#DBEFFF"></stop>
			<stop offset="1" style="stop-color:#D6EDFF"></stop>
		</linearGradient>
		<path fill="url(#SVGID_6_)" d="M166.186,375.766c-3.636,3.442-16.73,3.589-30.676,3.312c-14.878-0.292-88.146-1.218-82.336-3.312    c6.923-2.494,33.392-7.7,56.692-7.7C133.165,368.065,173.403,368.933,166.186,375.766z"></path>
		<path fill="#FDC8A8" d="M121.184,366.962c0,0-3.096,2.457-3.086,0.977c0.104-13.508,0.727-30.707,0.498-40.243    c-0.06-2.575-0.718-41.808,7.508-42.85c7.499-0.954,4.454-0.068,6.547,4.447c1.751,3.772-4.161,36.174-5.524,39.318    c-0.456,1.046-1.376,6.444-1.598,7.565C122.413,352.063,121.184,366.962,121.184,366.962z"></path>
		
			<linearGradient id="SVGID_7_" gradientUnits="userSpaceOnUse" x1="362.71" y1="270.0859" x2="365.2691" y2="283.6966" gradientTransform="matrix(1 0 0 1 -231.5273 0)">
			<stop offset="0" style="stop-color:#E83F3E"></stop>
			<stop offset="0.0532" style="stop-color:#E94645"></stop>
			<stop offset="0.7046" style="stop-color:#F99E95"></stop>
			<stop offset="1" style="stop-color:#FFC1B5"></stop>
		</linearGradient>
		<path fill="url(#SVGID_7_)" d="M120.208,265.401l2.208,12.751c1.458,3.224,1.458,4.622-0.121,7.161    c-0.908,1.458,19.038,1.249,18.315-0.255c-1.661-3.428,1.237-6.633,1.237-8.061l0.255-11.597H120.208z"></path>
		<path fill="#FDC8A8" d="M174.2,266.477c0.655,0.175,5.16,0.408,5.16,0.408c0.152-2.246-0.683-2.412-0.683-2.412l-19.274-6.49    c-3.01-0.742-5.571,0.477-5.722,2.719l0,0c-0.15,2.244,2.749,3.135,5.759,3.876L174.2,266.477z"></path>
		<path fill="#0F3871" d="M151.915,260.451c0.472,0.458,3.061,3.922,5.452,1.891l-0.3,0.169c2.388-2.033,2.076-4.619,2.076-4.619    l-14.907-14.117c-2.25-2.049-6.008-2.063-8.396-0.032l0,0c-2.391,2.033-0.4,4.175,1.848,6.219L151.915,260.451z"></path>
		<path fill="#FDC8A8" d="M137.297,366.451c0,0-2.869,2.717-2.99,1.242c-1.085-13.47-0.432-30.655-1.499-40.134    c-0.285-2.557-9.778-41.242-1.672-43.006c7.384-1.607,8.271-0.796,10.754,3.519c2.075,3.604,0.571,36.263-0.509,39.517    c-0.363,1.08-0.808,6.538-0.928,7.676C138.746,351.361,137.297,366.451,137.297,366.451z"></path>
		<path fill="#FDC8A8" d="M118.404,349.691c0.492-0.483,0.974-0.977,1.475-1.45c1.332-1.264,2.721-2.467,4.143-3.634    c0.443-2.725,0.944-5.561,1.507-8.431c0.222-1.121,1.143-6.52,1.598-7.565c1.363-3.145,7.275-35.546,5.524-39.318    c-2.093-4.516,0.952-5.401-6.547-4.447c-8.226,1.042-7.568,40.274-7.508,42.85C118.728,333.201,118.577,341.262,118.404,349.691z"></path>
		<path fill="#FDC8A8" d="M133.391,337.602c0.21-0.148,0.418-0.298,0.629-0.444c2.235-1.565,4.489-3.102,6.701-4.699    c0.19-1.939,0.439-4.212,0.661-4.869c1.08-3.254,2.583-35.913,0.509-39.517c-2.482-4.314-3.37-5.126-10.754-3.519    c-8.105,1.764,1.387,40.449,1.672,43.006C133.122,330.339,133.286,333.783,133.391,337.602z"></path>
		<path fill="#0F3871" d="M133.598,368.387c0.109,1.225-3.353,5.672-0.12,5.389c7.984-0.705,8.514-0.816,8.006-1.89    c-1.19-2.529-2.537-1.305-3.223-5.173C137.856,364.408,133.492,367.165,133.598,368.387z"></path>
		<path fill="#0F3871" d="M142.37,283.171c-1.384-5.856-0.156-11.59,0.832-16.256c1.344-6.357,2.129-10.73,2.129-10.73    c0-7.604-1.5-13.956-12.397-13.956c-10.895,0-16.207,6.218-16.207,13.82c0,0,5.488,20.19,5.461,23.554    c-0.074,9.626-6.926,21.479-5.208,48.108c0.28,4.334,19.329-0.77,25.504-1.034C143.066,326.649,145.806,297.725,142.37,283.171z"></path>
		<path fill="#0F3871" d="M124.365,245.378c-3.114-1.046-6.482,0.628-7.531,3.743l-5.295,23.282    c2.509,0.182,4.436,0.681,6.593,1.835c0.709-2.327,1.946-4.229,2.019-4.466l5.504-17.139    C126.702,249.522,127.478,246.43,124.365,245.378z"></path>
		<path fill="#FDC8A8" d="M101.023,295.626c-2.107,1.354-4.602,0.422-5.275-0.44c-0.674-0.869,4.136-2.413,5.916-3.795    c1.78-1.381,3.087-0.679,3.76,0.186C106.097,292.442,103.956,293.747,101.023,295.626z"></path>
		<path fill="#FDC8A8" d="M107.038,290.393c-0.329,0.605-2.797,3.16-2.797,3.16c-1.864-1.75-1.892-2.088-1.892-2.088l9.053-19.401    c1.545-2.746,4.314-3.554,6.183-1.807l0,0c1.864,1.747,0.506,4.537-1.044,7.28L107.038,290.393z"></path>
		<path fill="#0F3871" d="M117.332,368.569c0,1.228-3.842,5.357-0.595,5.357c8.016,0,8.553-0.065,8.142-1.179    c-0.964-2.623-2.414-1.522-2.754-5.438C121.921,364.98,117.332,367.344,117.332,368.569z"></path>
		<path fill="#FDC8A8" d="M125.34,243.707c-4.319,1.535,2.65,2.071,5.628,2.031c2.986-0.034,10.886-1.327,6.987-3.233    c-6.542-3.196-0.094-11.312-6.558-11.23C125.69,231.347,132.51,241.155,125.34,243.707z"></path>
		<path fill="#FDC8A8" d="M125.608,245.35c0.078-0.076,0.147-0.161,0.227-0.234c2.334-2.124,4.863-4.025,7.373-5.938    c0.482-0.473,1.005-0.876,1.547-1.247c-0.414-3.279,0.857-6.708-3.357-6.656c-5.708,0.072,1.112,9.881-6.058,12.433    C123.097,244.504,123.901,245.032,125.608,245.35z"></path>
		<path fill="#FBDA70" d="M138.728,220.771c0.023,1.659-1.325,3.022-3.009,3.045c-1.681,0.021-3.059-1.308-3.083-2.968    c-0.021-1.66,1.329-3.021,3.008-3.043C137.329,217.785,138.708,219.111,138.728,220.771z"></path>
		<path fill="#FDC8A8" d="M123.251,228.435c0.041,3.247,7.065,8.233,8.629,8.212c1.598-0.019,7.027-1.675,6.398-7.792    c-0.59-5.745-0.883-12.435-5.283-12.38C128.595,216.532,123.173,222.326,123.251,228.435z"></path>
		<path fill="#FBDA70" d="M133.46,219.27c-6.795,0.088-6.333,12.06-11.814,12.131c-5.483,0.068-2.19-14.756,6.424-16.447    C133.452,213.895,133.46,219.27,133.46,219.27z"></path>
		<path fill="#FBDA70" d="M137.091,217.786c0.021,1.631-1.973,2.976-4.456,3.006c-2.479,0.031-4.508-1.265-4.53-2.893    c-0.021-1.627,1.977-2.974,4.455-3.004C135.046,214.864,137.07,216.161,137.091,217.786z"></path>
		<g>
			<g>
				<g>
					<path fill="#5E98FF" d="M139.388,367.293c-0.415,2.835,1.008,5.38,3.166,5.707l18.763,2.736       c2.167,0.299,4.26-1.732,4.659-4.572l2.792-19.084c0.411-2.834-1.021-5.381-3.195-5.691l-18.733-2.74       c-2.169-0.332-4.255,1.729-4.667,4.558L139.388,367.293z"></path>
					<polygon fill="#FFD4B3" points="183.721,254.293 171.442,338.607 143.581,334.571 155.861,250.234      "></polygon>
					<polygon fill="#FFE2CF" points="183.721,254.293 171.442,338.607 163.244,337.43 175.527,253.099      "></polygon>
					<path fill="#FFD4B3" d="M182.317,263.889c-0.135-0.173,0.438-0.678,0.228-0.678c-0.962,0.002-0.558,1.792-2.802,1.576       c-0.919-0.087-1.066,0.533-0.898,1.604c0.065,0.408,0.245,1.124,2.576,0.632c0.279-0.059,0.255-0.024,0.469-0.146       L182.317,263.889z"></path>
					<path fill="#FDC8A8" d="M181.42,266.176c2.446-0.519,2.301-3.814,1.125-3.813c-0.962,0-0.558,1.789-2.802,1.575       c-0.919-0.088-1.066,0.534-0.898,1.604C178.91,265.952,179.089,266.665,181.42,266.176z"></path>
					<path fill="#FDC8A8" d="M182.715,262.394c0.03,0.112,0.053,0.228,0.066,0.341c0.224,1.942-1.639,3.689-3.56,3.021       c-0.134-0.047-0.255-0.107-0.371-0.175c0.072,0.413,0.307,1.072,2.569,0.595C183.742,265.685,183.727,262.697,182.715,262.394z       "></path>
					<polygon fill="#E5A67C" points="164.389,251.478 152.1,335.826 143.581,334.571 155.861,250.234      "></polygon>
					<polygon fill="#F9DCC3" points="173.934,223.799 183.712,254.292 155.848,250.229      "></polygon>
					<polygon fill="#DDC6AC" points="173.934,223.799 183.712,254.292 155.848,250.229      "></polygon>
					<polygon fill="#FFFFFF" points="173.934,223.799 183.712,254.292 175.521,253.099      "></polygon>
					<polyline fill="#F9DCC3" points="164.39,251.473 173.934,223.799 175.521,253.099      "></polyline>
				</g>
			</g>
			<path fill="#F9DCC3" d="M139.959,338.343c-0.337,2.325,1.147,4.47,3.315,4.781l25.897,3.781c2.162,0.32,4.195-1.308,4.532-3.636     l0,0c0.35-2.329-1.136-4.46-3.304-4.784l-25.897-3.777C142.334,334.386,140.302,336.016,139.959,338.343L139.959,338.343z"></path>
			<path fill="#F9DCC3" d="M138.725,346.764c-0.333,2.324,1.146,4.461,3.319,4.78l25.886,3.784c2.179,0.314,4.208-1.313,4.543-3.639     l0,0c0.346-2.324-1.14-4.464-3.302-4.784l-25.897-3.781C141.106,342.813,139.066,344.439,138.725,346.764L138.725,346.764z"></path>
			<path fill="#3D5B69" d="M173.399,211.138c0,0,1.905-0.719,2.483-0.666l0,0c0.348,0.027,2.205,0.659,2.163,1.507l-1.541,18.974     c-0.284,1.952-2.104,3.3-4.058,3.018l0,0c-1.946-0.281-3.305-2.102-3.015-4.048L173.399,211.138z"></path>
		</g>
	</g>
	<g>
		<path fill="#83A1B7" d="M207.327,58.445c-13.209-3.431-26.554-1.052-37.353,5.536v7.491c9.897-7.364,22.918-10.35,35.789-7.007    c22.539,5.854,36.065,28.872,30.211,51.409c-5.854,22.54-28.871,36.064-51.41,30.212c-5.439-1.413-10.346-3.833-14.59-6.995    v14.293c3.132,0.239,6.364-0.301,9.397-1.761c0.246-0.12,0.479-0.254,0.718-0.382c0.957,0.313,1.922,0.606,2.911,0.863    c25.864,6.719,52.275-8.802,58.994-34.666C248.711,91.576,233.19,65.163,207.327,58.445z"></path>
	</g>
	<g>
		<path fill="#0F3871" d="M116.132,172.315l46.864-46.384c0.101,0.283,0.198,0.567,0.318,0.847c1.22,2.852,3.571,4.927,6.334,6.095    c1.101,1.286,2.474,2.308,4.002,3.041l-47.256,46.771c-1.239,1.226-3.258,1.216-4.484-0.025l-5.801-5.859    C114.883,175.561,114.894,173.542,116.132,172.315z"></path>
		<path fill="#22A2FF" d="M130.347,173.207c6.441-5.377,21.635-20.165,24.597-25.035c3.075-5.057,0.011-7.121-2.969-11.332    l11.021-10.908c0.101,0.283,0.198,0.567,0.318,0.847c1.22,2.852,3.571,4.927,6.334,6.095c1.101,1.286,2.474,2.308,4.002,3.041    l-47.256,46.771c-1.239,1.226-3.258,1.216-4.484-0.025l-5.801-5.859c-0.601-0.606-0.9-1.4-0.909-2.197    C123.894,179.516,123.285,179.099,130.347,173.207z"></path>
		<path fill="#22A2FF" d="M157.152,114.371c0.086,2.993,1.133,5.979,3.068,8.266c6.632,7.837,14.604,14.483,25.057,15.271    c-1.365,1.306-2.952,2.426-4.746,3.29c-9.18,4.422-20.208,0.565-24.63-8.614C152.972,126.504,153.678,119.615,157.152,114.371z"></path>
		<path fill="#0F3871" d="M157.039,114.477c0.085,2.995,1.132,5.982,3.067,8.27c6.632,7.834,14.603,14.481,25.057,15.271    c-1.366,1.304-2.952,2.424-4.745,3.286c-9.18,4.424-20.207,0.567-24.63-8.61C152.858,126.61,153.563,119.723,157.039,114.477z"></path>
		<g>
			<path fill="#0F3871" d="M184.046,141.786c25.864,6.718,52.276-8.804,58.994-34.667c6.718-25.864-8.803-52.275-34.666-58.993     c-25.864-6.719-52.277,8.803-58.995,34.667C142.662,108.655,158.183,135.067,184.046,141.786z M155.399,84.357     c5.854-22.541,28.871-36.065,51.411-30.21c22.539,5.853,36.064,28.869,30.21,51.408c-5.854,22.538-28.871,36.065-51.41,30.21     C163.072,129.913,149.545,106.895,155.399,84.357z"></path>
			<path opacity="0.55" fill="#A9E1EA" d="M206.81,54.147c22.539,5.853,36.064,28.869,30.21,51.408     c-5.854,22.538-28.871,36.065-51.41,30.21c-22.539-5.853-36.065-28.871-30.211-51.408     C161.254,61.816,184.271,48.292,206.81,54.147z"></path>
		</g>
		<path opacity="0.77" fill="#FFFFFF" d="M155.474,104.799c-3.44-14.092,0.662-29.077,10.81-39.45    C162.667,78.494,159.051,91.642,155.474,104.799z"></path>
		<path opacity="0.77" fill="#FFFFFF" d="M189.324,53.267c9.004-1.536,18.218-0.096,26.238,3.976    c-7.351,26.528-14.572,53.09-21.803,79.648c-8.951-0.578-17.596-4.013-24.553-9.898C175.783,102.383,182.607,77.84,189.324,53.267    z"></path>
		<path opacity="0.77" fill="#FFFFFF" d="M230.678,71.659c0.559,0.835,1.101,1.685,1.606,2.566    c11.57,20.21,4.567,45.972-15.643,57.542c-0.923,0.527-1.861,1.005-2.807,1.458C219.419,112.695,225.022,92.172,230.678,71.659z"></path>
	</g>
	<g>
		<circle fill="#B3DEFF" cx="250.625" cy="349.979" r="39.978"></circle>
		<circle fill="#FFFFFF" cx="253.818" cy="349.188" r="39.761"></circle>
		<g>
			<g>
				<path fill="#A04942" d="M282.284,331.602c-1.311,1.905-2.534,3.859-3.619,5.891c1.736,3.608,2.727,7.642,2.762,11.905      c0.064,7.515-2.801,14.608-8.07,19.97c-5.27,5.361-12.311,8.35-19.827,8.413c-0.082,0.002-0.161,0.002-0.242,0.002      c-15.407,0-28.008-12.466-28.141-27.903c-0.132-15.515,12.384-28.246,27.899-28.38c0.08,0,0.159-0.002,0.24-0.002      c5.608,0,10.84,1.657,15.239,4.503l3.157-0.433c-5.467-3.711-11.314-10.089-18.396-10.089c-0.096,0-0.195,0-0.292,0.002      c-18.833,0.16-34.025,15.615-33.865,34.449l0,0c0.161,18.738,15.456,33.871,34.159,33.871c0.096,0,0.196,0,0.292-0.003      c9.124-0.076,17.671-3.703,24.069-10.212c6.396-6.508,9.877-15.117,9.796-24.24c-0.055-6.286,1.013-13.138-2.006-18.176      L282.284,331.602z"></path>
			</g>
			<path fill="#A04942" d="M258.956,364.858c-0.44,0.081-4.769,0.73-5.211,0.73c-1.736,0.144-3.387-0.338-4.535-1.332     l-16.479-14.237c-0.844-0.729-1.316-1.744-1.361-2.939c-0.059-1.662,0.732-3.528,2.067-4.861     c0.826-0.831,3.138-2.934,6.865-2.023c0,0-1.246,0.71,0.119,1.891l12.605,10.717l13.725-19.195     c0.04-0.073,8.931-11.44,12.565-13.243c1.748-0.866,3.841-0.121,4.177,0.006c0.539,0.197-2.21,1.062-2.014,1.643     c1.096,3.278-5.308,13.849-5.373,13.952l-16.784,26.777c-0.898,1.394-2.437,2.385-4.245,2.723L258.956,364.858z"></path>
		</g>
		<g>
			<g>
				<path fill="#5E98FF" d="M285.439,331.17c-1.311,1.903-2.532,3.857-3.618,5.891c1.736,3.607,2.725,7.643,2.763,11.905      c0.064,7.516-2.802,14.609-8.07,19.97c-5.271,5.359-12.312,8.349-19.827,8.413c-0.082,0.001-0.162,0.003-0.242,0.003      c-15.407,0-28.008-12.468-28.141-27.904c-0.132-15.517,12.382-28.247,27.898-28.381c0.081,0,0.16-0.003,0.241-0.003      c5.607,0,10.84,1.66,15.239,4.504c1.184-1.643,2.489-3.185,3.902-4.637c-5.468-3.712-12.06-5.883-19.141-5.883      c-0.097,0-0.195,0-0.292,0c-18.834,0.162-34.025,15.617-33.865,34.451l0,0c0.16,18.736,15.455,33.868,34.159,33.868      c0.096,0,0.196,0,0.292,0c9.124-0.079,17.671-3.706,24.068-10.213c6.396-6.509,9.877-15.118,9.797-24.239      C290.547,342.401,288.659,336.326,285.439,331.17z"></path>
			</g>
			<path fill="#5E98FF" d="M258.234,365.031c-0.439,0.083-0.892,0.127-1.333,0.127c-1.736,0.141-3.386-0.338-4.534-1.334     l-16.479-14.235c-0.844-0.729-1.316-1.747-1.362-2.94c-0.057-1.662,0.734-3.525,2.067-4.862c0.827-0.832,1.738-1.339,2.698-1.525     c1.438-0.271,2.921,0.214,4.285,1.394l12.605,10.718l13.726-19.197c0.04-0.073,8.648-12.154,12.479-12.879     c0.398-0.075,0.771-0.053,1.107,0.074c0.539,0.197,0.947,0.628,1.143,1.212c1.096,3.278-5.309,13.848-5.373,13.951     l-16.784,26.776C261.581,363.704,260.043,364.693,258.234,365.031L258.234,365.031z"></path>
		</g>
	</g>
	<g>
		<circle fill="#B3DEFF" cx="355.743" cy="359.943" r="35.236"></circle>
		<circle fill="#FFFFFF" cx="358.558" cy="359.247" r="35.046"></circle>
		<g>
			<g>
				<path fill="#A04942" d="M383.647,343.746c-1.155,1.678-2.234,3.399-3.189,5.19c1.529,3.182,2.402,6.739,2.434,10.496      c0.059,6.624-2.468,12.875-7.112,17.601c-4.646,4.728-10.852,7.362-17.476,7.418c-0.072,0-0.142,0-0.213,0      c-13.581,0-24.688-10.989-24.803-24.595c-0.118-13.678,10.914-24.9,24.588-25.019c0.071,0,0.143,0,0.213,0      c4.942,0,9.555,1.46,13.432,3.969l2.782-0.382c-4.82-3.271-9.972-8.894-16.214-8.894c-0.085,0-0.172,0-0.258,0.003      c-16.6,0.144-29.99,13.766-29.85,30.366l0,0c0.143,16.518,13.623,29.857,30.109,29.857c0.084,0,0.172,0,0.258-0.001      c8.043-0.069,15.574-3.269,21.214-9.004c5.639-5.737,8.704-13.324,8.634-21.367c-0.048-5.541,0.894-11.581-1.768-16.021      L383.647,343.746z"></path>
			</g>
		</g>
		<g>
			<g>
				<path fill="#FF5F4A" d="M386.429,343.364c-1.154,1.679-2.233,3.399-3.189,5.19c1.53,3.183,2.402,6.739,2.434,10.496      c0.059,6.625-2.467,12.876-7.111,17.603c-4.646,4.726-10.852,7.36-17.477,7.417c-0.07,0-0.142,0-0.213,0      c-13.579,0-24.686-10.988-24.804-24.596c-0.116-13.676,10.915-24.899,24.591-25.018c0.07,0,0.14-0.001,0.211-0.001      c4.943,0,9.555,1.461,13.433,3.969c1.043-1.448,2.192-2.806,3.439-4.088c-4.819-3.272-10.63-5.186-16.872-5.186      c-0.085,0-0.172,0-0.256,0c-16.602,0.145-29.991,13.766-29.851,30.368l0,0c0.142,16.519,13.622,29.858,30.108,29.858      c0.085,0,0.172-0.001,0.258-0.003c8.043-0.069,15.576-3.266,21.214-9.004c5.64-5.734,8.705-13.324,8.636-21.365      C390.929,353.265,389.269,347.91,386.429,343.364z"></path>
			</g>
			<path fill="#A04942" d="M372.435,340.506c-0.109-0.393-0.364-0.694-0.716-0.844c-0.218-0.099-0.466-0.124-0.732-0.089     c-2.569,0.347-8.708,8.068-8.737,8.117l-8.673,11.491l-5.013,7.136c-0.047,0.066-4.67,6.861-4.055,9.077     c0.108,0.393,0.363,0.692,0.715,0.843c0.221,0.097,0.466,0.124,0.732,0.089c2.57-0.347,8.707-8.068,8.736-8.116l3.636-4.6     c0.007,0.008,0.01,0.017,0.015,0.023l10.037-14.051C368.426,349.517,373.048,342.722,372.435,340.506z"></path>
			<path fill="#A04942" d="M341.03,343.984c-0.395,0.109-0.695,0.365-0.846,0.716c-0.096,0.22-0.123,0.465-0.088,0.733     c0.346,2.569,8.068,8.707,8.115,8.738l11.49,8.674l7.135,5.014c0.066,0.046,6.861,4.669,9.077,4.055     c0.394-0.108,0.694-0.363,0.845-0.714c0.096-0.221,0.122-0.467,0.086-0.735c-0.346-2.568-8.066-8.706-8.113-8.736l-4.6-3.635     c0.007-0.008,0.016-0.012,0.022-0.017l-14.05-10.037C350.038,347.994,343.243,343.372,341.03,343.984z"></path>
			<path fill="#FF5F4A" d="M374.836,340.987c-0.11-0.396-0.366-0.695-0.718-0.846c-0.219-0.096-0.465-0.124-0.731-0.089     c-2.57,0.347-8.708,8.068-8.738,8.116l-8.673,11.492l-5.013,7.136c-0.047,0.065-4.669,6.861-4.056,9.077     c0.11,0.394,0.365,0.693,0.717,0.843c0.219,0.099,0.465,0.124,0.732,0.089c2.569-0.348,8.707-8.068,8.736-8.116l3.637-4.6     c0.004,0.009,0.009,0.017,0.014,0.023l10.037-14.05C370.826,349.996,375.448,343.201,374.836,340.987z"></path>
			<path fill="#FF5F4A" d="M343.43,344.464c-0.394,0.109-0.694,0.364-0.845,0.718c-0.096,0.218-0.123,0.465-0.088,0.732     c0.346,2.568,8.068,8.709,8.115,8.737l11.491,8.674l7.136,5.013c0.064,0.049,6.859,4.67,9.075,4.057     c0.394-0.109,0.694-0.364,0.844-0.716c0.096-0.22,0.123-0.465,0.087-0.732c-0.346-2.57-8.066-8.709-8.114-8.737l-4.601-3.637     c0.008-0.006,0.018-0.009,0.024-0.016l-14.05-10.036C352.439,348.476,345.644,343.851,343.43,344.464z"></path>
		</g>
	</g>
	<g>
		<g>
			<path fill="#5E92D8" d="M503.876,83.066c-0.271,11.852-7.682,13.884-13.751,13.672c-15.188-0.5-30.388-0.38-45.563,0.432     c-47.858,2.557-95.22,11.837-140.577,27.301c-5.744,1.971-12.43-0.978-14.549-6.74c-4.86-13.228-9.719-26.453-14.58-39.681     c-2.313-6.295-2.291-14.136,8.686-18.303c51.027-17.41,103.782-24.333,157.629-27.202c17.048-0.91,34.123-1.046,51.184-0.485     c6.276,0.217,12.479,5.087,12.101,11.783C503.663,57.911,504.667,68.998,503.876,83.066z"></path>
		</g>
		<g>
			<path fill="#0F3871" d="M503.991,81.982c-0.346,6.132-5.883,10.898-11.951,10.688c-15.187-0.497-30.387-0.379-45.561,0.431     c-47.861,2.559-95.223,11.839-140.579,27.302c-5.743,1.971-12.43-0.975-14.55-6.74c-4.858-13.227-9.719-26.453-14.578-39.68     c-2.314-6.296,2.199-12.762,8.143-14.798c51.026-17.407,104.324-27.838,158.17-30.709c17.049-0.909,34.124-1.045,51.184-0.482     c6.278,0.215,12.48,5.086,12.102,11.781C505.579,53.845,504.785,67.914,503.991,81.982z"></path>
		</g>
		<g>
			<g>
				<g>
					<path fill="#FFC55E" d="M389.115,41.669c0.469-1.562,1.635-1.758,2.587-0.434l6.416,8.903c0.954,1.322,3.067,2.376,4.697,2.341       l10.971-0.238c1.63-0.036,2.176,1.01,1.213,2.327l-6.484,8.854c-0.964,1.313-1.312,3.649-0.774,5.188l3.616,10.361       c0.539,1.541-0.291,2.383-1.838,1.873l-10.424-3.433c-1.549-0.51-3.877-0.118-5.176,0.87l-8.736,6.641       c-1.297,0.985-3.051,0.771-3.324-2.026l1.02-10.119c0.005-1.631-1.086-3.724-2.424-4.654l-9.018-6.256       c-1.341-0.929-1.166-2.097,0.387-2.595l10.451-3.351c1.551-0.499,3.207-2.183,3.676-3.741L389.115,41.669z"></path>
				</g>
				<g>
					<path fill="#FFC55E" d="M389.115,41.669c0.469-1.562,1.635-1.758,2.587-0.434l6.416,8.903c0.954,1.322,3.067,2.376,4.697,2.341       l10.971-0.238c1.63-0.036,2.176,1.01,1.213,2.327l-6.484,8.854c-0.964,1.313-1.312,3.649-0.774,5.188l3.616,10.361       c0.539,1.541-0.291,2.383-1.838,1.873l-10.424-3.433c-1.549-0.51-3.877-0.118-5.176,0.87l-8.736,6.641       c-1.297,0.985-3.184,0.795-3.324-2.026l1.02-10.119c0.005-1.631-1.086-3.724-2.424-4.654l-9.018-6.256       c-1.341-0.929-1.166-2.097,0.387-2.595l10.451-3.351c1.551-0.499,3.207-2.183,3.676-3.741L389.115,41.669z"></path>
				</g>
				<g>
					<path fill="#FFD797" d="M387.461,41.428c0.442-1.465,2.063-1.881,2.96-0.64l5.496,8.596c0.896,1.24,2.881,2.231,4.412,2.195       l12.834-0.237c1.53-0.032,1.521,1.368,0.617,2.603l-8.1,7.914c-0.902,1.232-1.231,3.43-0.726,4.873l3.396,9.732       c0.506,1.445-0.271,2.234-1.725,1.757l-9.791-3.223c-1.455-0.478-3.642-0.112-4.86,0.815l-7.884,8.17       c-1.22,0.925-2.321-0.271-2.316-1.803l-0.172-11.535c0.006-1.531-1.019-3.499-2.277-4.371l-8.531-5.286       c-1.258-0.871-1.031-2.56,0.428-3.027l9.815-3.146c1.458-0.468,3.013-2.05,3.452-3.518L387.461,41.428z"></path>
				</g>
				<g>
					<path fill="#FFC55E" d="M388.579,41.852c0.452-1.507,1.576-1.693,2.496-0.418l6.193,8.592c0.918,1.277,2.959,2.295,4.531,2.258       l10.588-0.229c1.573-0.035,2.098,0.977,1.17,2.245l-6.26,8.544c-0.929,1.27-1.264,3.523-0.745,5.009l3.489,9.999       c0.52,1.486-0.278,2.297-1.771,1.805l-10.061-3.311c-1.494-0.491-3.742-0.114-4.994,0.836l-8.432,6.412       c-1.252,0.95-2.271,0.442-2.266-1.13l0.041-10.592c0.006-1.573-1.048-3.595-2.34-4.49l-8.701-6.039       c-1.293-0.895-1.125-2.021,0.373-2.503l10.085-3.234c1.499-0.479,3.097-2.105,3.548-3.613L388.579,41.852z"></path>
				</g>
			</g>
			<path fill="#FFD797" d="M384.714,55.253c-2.715,2.025-11.111,3.815-10.213,3.661c0.898-0.156,9.607-0.857,11.782-3.455     c2.579-3.08,2.21-10.033,2.21-10.033C388.098,45.494,387.567,53.129,384.714,55.253z"></path>
		</g>
		<g>
			<g>
				<g>
					<path fill="#FFC55E" d="M437.108,41.297c0.579-1.28,1.598-1.317,2.262-0.076l4.477,8.338c0.666,1.241,2.354,2.381,3.75,2.536       l9.41,1.039c1.396,0.153,1.744,1.113,0.771,2.129l-6.548,6.833c-0.974,1.016-1.536,2.971-1.251,4.349l1.918,9.271       c0.284,1.376-0.519,2.003-1.785,1.393l-8.523-4.118c-1.266-0.611-3.302-0.54-4.523,0.156l-8.223,4.688       c-1.223,0.695-2.695,0.313-2.613-2.108l2.02-8.537c0.189-1.395-0.505-3.308-1.546-4.254l-7-6.371       c-1.04-0.947-0.76-1.928,0.626-2.178l9.314-1.679c1.385-0.249,2.99-1.501,3.568-2.784L437.108,41.297z"></path>
				</g>
				<g>
					<path fill="#FFC55E" d="M437.108,41.297c0.579-1.28,1.598-1.317,2.262-0.076l4.477,8.338c0.666,1.241,2.354,2.381,3.75,2.536       l9.41,1.039c1.396,0.153,1.744,1.113,0.771,2.129l-6.548,6.833c-0.974,1.016-1.536,2.971-1.251,4.349l1.918,9.271       c0.284,1.376-0.519,2.003-1.785,1.393l-8.523-4.118c-1.266-0.611-3.302-0.54-4.523,0.156l-8.223,4.688       c-1.223,0.695-2.813,0.317-2.613-2.108l2.02-8.537c0.189-1.395-0.505-3.308-1.546-4.254l-7-6.371       c-1.04-0.947-0.76-1.928,0.626-2.178l9.314-1.679c1.385-0.249,2.99-1.501,3.568-2.784L437.108,41.297z"></path>
				</g>
				<g>
					<path fill="#FFD797" d="M435.724,40.902c0.543-1.204,1.977-1.374,2.602-0.211l3.726,7.975c0.626,1.163,2.211,2.234,3.524,2.378       l10.998,1.252c1.313,0.146,1.148,1.34,0.233,2.292l-7.822,5.853c-0.912,0.951-1.441,2.79-1.174,4.081l1.802,8.709       c0.268,1.291-0.486,1.881-1.676,1.307l-8.006-3.867c-1.189-0.573-3.102-0.509-4.248,0.146l-7.668,6.091       c-1.147,0.652-1.955-0.493-1.775-1.8l1.16-9.886c0.18-1.309-0.474-3.107-1.449-3.994l-6.696-5.488       c-0.978-0.889-0.591-2.305,0.709-2.539l8.748-1.58c1.3-0.233,2.809-1.408,3.352-2.614L435.724,40.902z"></path>
				</g>
				<g>
					<path fill="#FFC55E" d="M436.63,41.394c0.559-1.238,1.54-1.272,2.184-0.076l4.319,8.049c0.642,1.194,2.27,2.295,3.618,2.445       l9.08,1.004c1.349,0.148,1.684,1.072,0.744,2.053l-6.318,6.596c-0.939,0.979-1.48,2.868-1.207,4.197l1.851,8.945       c0.274,1.329-0.499,1.934-1.721,1.343l-8.227-3.974c-1.223-0.587-3.186-0.521-4.365,0.151l-7.935,4.524       c-1.179,0.673-1.994,0.123-1.811-1.222l1.236-9.053c0.184-1.343-0.488-3.19-1.491-4.104l-6.755-6.148       c-1.004-0.913-0.732-1.858,0.604-2.099l8.99-1.624c1.335-0.238,2.885-1.447,3.443-2.685L436.63,41.394z"></path>
				</g>
			</g>
			<path fill="#FFD797" d="M431.805,52.414c-2.55,1.424-9.933,2-9.146,1.971c0.785-0.03,8.31,0.355,10.465-1.619     c2.557-2.343,3.026-8.326,3.026-8.326C435.806,44.452,434.487,50.92,431.805,52.414z"></path>
		</g>
		<g>
			<g>
				<g>
					<path fill="#FFC55E" d="M477.776,44.026c0.488-1.078,1.345-1.106,1.902-0.065l3.764,7.011c0.559,1.04,1.977,2,3.152,2.13       l7.908,0.874c1.176,0.129,1.468,0.936,0.649,1.789l-5.505,5.744c-0.818,0.854-1.291,2.5-1.05,3.656l1.61,7.793       c0.24,1.159-0.435,1.684-1.5,1.171l-7.164-3.461c-1.064-0.514-2.776-0.454-3.803,0.13l-6.912,3.942       c-1.027,0.585-2.267,0.263-2.197-1.774l1.697-7.175c0.159-1.173-0.426-2.78-1.299-3.577l-5.885-5.354       c-0.874-0.796-0.639-1.62,0.526-1.828l7.829-1.414c1.165-0.21,2.514-1.262,3-2.339L477.776,44.026z"></path>
				</g>
				<g>
					<path fill="#FFC55E" d="M477.776,44.026c0.488-1.078,1.345-1.106,1.902-0.065l3.764,7.011c0.559,1.04,1.977,2,3.152,2.13       l7.908,0.874c1.176,0.129,1.468,0.936,0.649,1.789l-5.505,5.744c-0.818,0.854-1.291,2.5-1.05,3.656l1.61,7.793       c0.24,1.159-0.435,1.684-1.5,1.171l-7.164-3.461c-1.064-0.514-2.776-0.454-3.803,0.13l-6.912,3.942       c-1.027,0.585-2.364,0.267-2.197-1.774l1.697-7.175c0.159-1.173-0.426-2.78-1.299-3.577l-5.885-5.354       c-0.874-0.796-0.639-1.62,0.526-1.828l7.829-1.414c1.165-0.21,2.514-1.262,3-2.339L477.776,44.026z"></path>
				</g>
				<g>
					<path fill="#FFD797" d="M476.612,43.695c0.457-1.013,1.662-1.156,2.188-0.179l3.132,6.703c0.525,0.977,1.857,1.878,2.961,1.998       l9.247,1.054c1.104,0.122,0.964,1.127,0.195,1.929l-6.575,4.917c-0.768,0.8-1.213,2.347-0.987,3.434l1.514,7.318       c0.225,1.086-0.406,1.581-1.407,1.099l-6.73-3.249c-1-0.483-2.605-0.429-3.571,0.121l-6.446,5.119       c-0.965,0.551-1.642-0.413-1.491-1.514l0.975-8.31c0.15-1.098-0.397-2.61-1.219-3.356l-5.629-4.614       c-0.822-0.748-0.496-1.938,0.596-2.134l7.354-1.328c1.092-0.196,2.361-1.185,2.818-2.198L476.612,43.695z"></path>
				</g>
				<g>
					<path fill="#FFC55E" d="M477.376,44.105c0.467-1.037,1.293-1.067,1.834-0.063l3.631,6.767c0.539,1.005,1.909,1.929,3.042,2.056       l7.634,0.844c1.133,0.125,1.415,0.9,0.625,1.724l-5.313,5.546c-0.789,0.824-1.244,2.412-1.013,3.527l1.555,7.521       c0.231,1.118-0.42,1.625-1.445,1.129l-6.916-3.339c-1.026-0.497-2.679-0.44-3.669,0.127l-6.673,3.801       c-0.989,0.567-1.675,0.105-1.521-1.026l1.039-7.607c0.154-1.131-0.408-2.684-1.254-3.452l-5.678-5.17       c-0.845-0.768-0.615-1.56,0.506-1.763l7.558-1.362c1.122-0.203,2.426-1.219,2.896-2.258L477.376,44.105z"></path>
				</g>
			</g>
			<path fill="#FFD797" d="M473.319,53.371c-2.146,1.194-8.35,1.682-7.689,1.655c0.66-0.024,6.986,0.302,8.798-1.36     c2.149-1.968,2.544-6.999,2.544-6.999C476.682,46.679,475.573,52.114,473.319,53.371z"></path>
		</g>
		<g>
			<g>
				<g>
					<path fill="#FFC55E" d="M343.295,55.991c0.21-1.39,1.181-1.699,2.156-0.688l6.563,6.821c0.976,1.013,2.907,1.656,4.295,1.426       l9.341-1.54c1.386-0.228,1.98,0.601,1.316,1.84l-4.457,8.349c-0.662,1.241-0.676,3.278-0.028,4.527l4.35,8.406       c0.647,1.249,0.042,2.07-1.342,1.82l-9.318-1.659c-1.384-0.245-3.326,0.371-4.313,1.372l-6.65,6.734       c-0.987,1.002-2.512,1.029-3.086-1.324l-0.362-8.766c-0.193-1.393-1.38-3.045-2.637-3.678l-8.462-4.242       c-1.257-0.632-1.25-1.648,0.016-2.264l8.514-4.135c1.266-0.613,2.473-2.254,2.684-3.644L343.295,55.991z"></path>
				</g>
				<g>
					<path fill="#FFC55E" d="M343.295,55.991c0.21-1.39,1.181-1.699,2.156-0.688l6.563,6.821c0.976,1.013,2.907,1.656,4.295,1.426       l9.341-1.54c1.386-0.228,1.98,0.601,1.316,1.84l-4.457,8.349c-0.662,1.241-0.676,3.278-0.028,4.527l4.35,8.406       c0.647,1.249,0.042,2.07-1.342,1.82l-9.318-1.659c-1.384-0.245-3.326,0.371-4.313,1.372l-6.65,6.734       c-0.987,1.002-2.621,1.066-3.086-1.324l-0.362-8.766c-0.193-1.393-1.38-3.045-2.637-3.678l-8.462-4.242       c-1.257-0.632-1.25-1.648,0.016-2.264l8.514-4.135c1.266-0.613,2.473-2.254,2.684-3.644L343.295,55.991z"></path>
				</g>
				<g>
					<path fill="#FFD797" d="M341.854,55.985c0.198-1.305,1.532-1.858,2.45-0.907l5.738,6.671c0.918,0.95,2.731,1.554,4.037,1.338       l10.928-1.766c1.303-0.217,1.466,0.979,0.844,2.146l-5.951,7.744c-0.622,1.165-0.635,3.078-0.026,4.25l4.085,7.896       c0.607,1.171,0.042,1.941-1.26,1.711l-8.752-1.559c-1.301-0.231-3.123,0.348-4.051,1.288l-5.736,7.935       c-0.93,0.939-2.016,0.053-2.197-1.255l-1.553-9.831c-0.182-1.307-1.295-2.859-2.476-3.453l-7.931-3.475       c-1.18-0.592-1.191-2.06-0.003-2.637l7.997-3.884c1.188-0.576,2.323-2.116,2.521-3.424L341.854,55.985z"></path>
				</g>
				<g>
					<path fill="#FFC55E" d="M342.858,56.212c0.205-1.342,1.141-1.64,2.082-0.661l6.332,6.58c0.941,0.979,2.809,1.599,4.145,1.376       l9.016-1.485c1.336-0.219,1.909,0.577,1.271,1.774l-4.304,8.059c-0.64,1.197-0.649,3.162-0.026,4.366l4.197,8.113       c0.623,1.205,0.041,1.996-1.293,1.758l-8.994-1.601c-1.336-0.237-3.209,0.357-4.162,1.322l-6.418,6.502       c-0.954,0.965-1.889,0.654-2.073-0.688l-1.256-9.048c-0.186-1.346-1.331-2.942-2.544-3.551l-8.166-4.095       c-1.212-0.608-1.205-1.592,0.015-2.185l8.218-3.989c1.221-0.592,2.385-2.176,2.59-3.518L342.858,56.212z"></path>
				</g>
			</g>
			<path fill="#FFD797" d="M341.191,68.125c-2.071,2.061-9.022,4.612-8.274,4.369c0.748-0.241,8.098-1.902,9.639-4.386     c1.828-2.945,0.666-8.836,0.666-8.836C342.893,59.381,343.37,65.963,341.191,68.125z"></path>
		</g>
		<g>
			<g>
				<g>
					<path fill="#FFC55E" d="M306.961,73.175c0.086-1.181,0.88-1.503,1.763-0.716l5.947,5.286c0.884,0.783,2.546,1.196,3.693,0.912       l7.727-1.903c1.148-0.282,1.699,0.374,1.226,1.456l-3.19,7.29c-0.474,1.083-0.352,2.79,0.273,3.793l4.195,6.763       c0.624,1.005,0.172,1.73-1.004,1.614l-7.919-0.78c-1.177-0.117-2.764,0.529-3.525,1.43l-5.132,6.081       c-0.764,0.904-2.037,1.029-2.672-0.908l-0.881-7.321c-0.252-1.154-1.354-2.462-2.449-2.909l-7.37-3.003       c-1.095-0.444-1.156-1.301-0.135-1.896l6.864-4.022c1.021-0.598,1.926-2.051,2.011-3.229L306.961,73.175z"></path>
				</g>
				<g>
					<path fill="#FFC55E" d="M306.961,73.175c0.086-1.181,0.88-1.503,1.763-0.716l5.947,5.286c0.884,0.783,2.546,1.196,3.693,0.912       l7.727-1.903c1.148-0.282,1.699,0.374,1.226,1.456l-3.19,7.29c-0.474,1.083-0.352,2.79,0.273,3.793l4.195,6.763       c0.624,1.005,0.172,1.73-1.004,1.614l-7.919-0.78c-1.177-0.117-2.764,0.529-3.525,1.43l-5.132,6.081       c-0.764,0.904-2.129,1.066-2.672-0.908l-0.881-7.321c-0.252-1.154-1.354-2.462-2.449-2.909l-7.37-3.003       c-1.095-0.444-1.156-1.301-0.135-1.896l6.864-4.022c1.021-0.598,1.926-2.051,2.011-3.229L306.961,73.175z"></path>
				</g>
				<g>
					<path fill="#FFD797" d="M305.753,73.265c0.08-1.108,1.163-1.658,1.993-0.922l5.248,5.214c0.829,0.736,2.391,1.124,3.47,0.858       l9.043-2.195c1.078-0.268,1.294,0.727,0.848,1.741l-4.48,6.881c-0.443,1.017-0.328,2.622,0.257,3.563l3.94,6.351       c0.587,0.943,0.162,1.626-0.943,1.518l-7.438-0.733c-1.104-0.109-2.595,0.496-3.311,1.344l-4.288,7.027       c-0.716,0.848-1.685,0.176-1.921-0.908l-1.946-8.137c-0.237-1.086-1.274-2.315-2.302-2.732l-6.873-2.393       c-1.028-0.42-1.134-1.649-0.176-2.21l6.447-3.78c0.959-0.56,1.809-1.924,1.889-3.03L305.753,73.265z"></path>
				</g>
				<g>
					<path fill="#FFC55E" d="M306.61,73.389c0.082-1.139,0.849-1.449,1.701-0.692l5.739,5.103c0.853,0.757,2.457,1.154,3.563,0.881       l7.457-1.836c1.107-0.272,1.64,0.358,1.183,1.404l-3.079,7.034c-0.457,1.046-0.337,2.694,0.264,3.662l4.05,6.524       c0.601,0.97,0.166,1.669-0.968,1.559l-7.645-0.754c-1.135-0.11-2.664,0.512-3.402,1.38l-4.951,5.87       c-0.736,0.872-1.538,0.674-1.783-0.44l-1.645-7.501c-0.244-1.115-1.309-2.378-2.365-2.808l-7.11-2.898       c-1.058-0.43-1.117-1.253-0.132-1.831l6.627-3.883c0.982-0.576,1.855-1.979,1.938-3.117L306.61,73.389z"></path>
				</g>
			</g>
			<path fill="#FFD797" d="M305.995,83.483c-1.604,1.859-7.262,4.453-6.65,4.202c0.611-0.252,6.663-2.124,7.792-4.306     c1.339-2.59-0.022-7.449-0.022-7.449C306.847,76.041,307.679,81.526,305.995,83.483z"></path>
		</g>
	</g>
	<g>
		<g>
			<polygon fill="#FF5F4A" points="342.249,165.854 330.005,180.993 333.572,183.947 345.573,168.429    "></polygon>
		</g>
		<g>
			<polygon fill="#FF5F4A" points="346.161,180.528 332.79,166.374 329.385,169.516 343.167,183.479    "></polygon>
		</g>
	</g>
</g>
</svg>
